<svg width="31" height="29" viewBox="0 0 31 29" fill="white" xmlns="http://www.w3.org/2000/svg">
<path d="M29.4031 14.2231C29.4031 21.3451 23.2399 27.2231 15.5043 27.2231C7.76864 27.2231 1.60547 21.3451 1.60547 14.2231C1.60547 7.10115 7.76864 1.22314 15.5043 1.22314C23.2399 1.22314 29.4031 7.10115 29.4031 14.2231Z" stroke="#053779" stroke-width="2"/>
<path d="M10.3295 13.6716C10.0249 13.9762 10.0249 14.4701 10.3295 14.7747L15.2934 19.7386C15.598 20.0432 16.0919 20.0432 16.3965 19.7386C16.7011 19.434 16.7011 18.9401 16.3965 18.6355L11.9841 14.2231L16.3965 9.8108C16.7011 9.50619 16.7011 9.01232 16.3965 8.70771C16.0919 8.4031 15.598 8.4031 15.2934 8.70771L10.3295 13.6716ZM22.1836 13.4431L10.8811 13.4431V15.0031L22.1836 15.0031V13.4431Z" fill="#053779"/>
</svg>
