<svg width="120" height="156" viewBox="0 0 120 156" fill="none" xmlns="http://www.w3.org/2000/svg">
<path d="M44.4674 0.0473633H108.174C109.139 8.20323 109.663 16.3856 109.746 24.5945H52.5165C52.606 21.7036 52.6127 19.4751 52.5331 17.9022C52.2644 12.4285 45.0179 10.8126 42.5836 15.8094C42.3846 16.22 42.1624 16.6373 41.917 17.0644L41.9236 12.7828C41.9468 9.72977 41.9568 6.67339 41.9502 3.61038C41.9468 1.80569 42.7859 0.620228 44.4674 0.0506746V0.0473633ZM99.4482 9.08737C99.4482 7.40189 98.0785 6.0343 96.3904 6.0343H65.1855C63.4974 6.0343 62.1277 7.40189 62.1277 9.08737V14.7167C62.1277 16.4022 63.4974 17.7697 65.1855 17.7697H96.3904C98.0785 17.7697 99.4482 16.4022 99.4482 14.7167V9.08406V9.08737Z" fill="#083B73"/>
<path d="M108.174 0.0472567H117.294C118.863 0.673103 119.669 1.83208 119.709 3.5308C119.775 6.37195 119.758 13.3755 119.656 24.5347C116.409 24.7036 113.109 24.7235 109.746 24.591C109.663 16.3822 109.139 8.19982 108.174 0.0439453V0.0472567Z" fill="#063560"/>
<path d="M96.3906 6.03076H65.1857C63.497 6.03076 62.1279 7.39767 62.1279 9.08383V14.7165C62.1279 16.4026 63.497 17.7695 65.1857 17.7695H96.3906C98.0794 17.7695 99.4484 16.4026 99.4484 14.7165V9.08383C99.4484 7.39767 98.0794 6.03076 96.3906 6.03076Z" fill="#FAF9F6"/>
<path d="M26.5517 12.7895C30.6907 15.0876 32.1632 20.3957 27.487 23.1441C26.9796 23.4455 26.2897 23.6607 25.706 23.8991L12.3704 23.9157C12.2576 23.9157 12.2046 23.9687 12.2046 24.078L12.1814 40.7473C11.4352 39.648 10.6292 38.787 9.76364 38.1612C6.7788 35.9988 3.02784 37.2439 1.42266 40.5023C1.30327 40.7473 1.14407 40.85 0.941768 40.8069C0.888705 35.5253 0.875439 30.2437 0.905287 24.9687C0.918553 23.1442 1.00478 21.1871 1.66808 19.5248C3.39266 15.2101 7.0806 12.7697 11.7436 12.7664C16.7747 12.7664 21.7096 12.773 26.555 12.7862L26.5517 12.7895Z" fill="#053779"/>
<path d="M26.5518 12.7892L41.9204 12.7793L41.9138 17.0609L41.8773 23.8525L25.7061 23.8988C26.2931 23.6637 26.9796 23.4452 27.487 23.1438C32.1633 20.3954 30.6907 15.0873 26.5518 12.7892Z" fill="#053779"/>
<path d="M52.5165 24.5911C52.3938 24.5745 52.3341 24.5977 52.3374 24.6672H41.9502C41.8474 24.4553 41.8242 24.1838 41.8805 23.8526L41.917 17.061C42.1624 16.6339 42.3846 16.2166 42.5836 15.806C45.0213 10.8092 52.2645 12.4284 52.5331 17.8988C52.6127 19.4717 52.6061 21.7036 52.5165 24.5877V24.5911Z" fill="#0F4E87"/>
<path d="M41.8766 23.8494C41.8236 24.1805 41.8468 24.452 41.9463 24.6673L42.0193 72.9005L42.0093 74.7714L34.1227 74.7846C31.7779 74.8178 29.4298 74.8277 27.0785 74.8145C23.7122 74.7979 22.8964 76.0595 22.8964 79.3841C22.8964 95.2588 22.8964 111.13 22.8964 127.001C22.8964 127.233 22.9262 127.574 22.9859 128.028C23.0357 128.412 23.039 128.76 22.9959 129.068C22.84 132.76 22.8168 135.942 22.9262 138.611C23.0091 140.671 23.7188 142.475 25.0521 144.032C24.9294 144.032 24.8398 144.058 24.7868 144.101L12.2902 144.088C12.1741 144.088 12.1178 144.032 12.1178 143.916L12.1045 91.7487L12.1708 70.3276V40.7472L12.194 24.0778C12.194 23.9686 12.2504 23.9156 12.3599 23.9156L25.6955 23.899L41.8667 23.8527L41.8766 23.8494Z" fill="#FAF9F6"/>
<path d="M119.653 24.5347L119.639 104.507H95.041C95.2466 104.411 95.376 104.289 95.4324 104.14C97.3128 99.166 99.0639 94.0765 100.682 88.871C102.201 90.0532 103.465 91.3711 104.476 92.8215C104.864 93.3745 105.392 93.497 105.813 92.9009C107.047 91.1426 108.536 89.6426 110.284 88.4008C110.755 88.0664 111.252 87.563 110.595 87.0895C108.659 85.6987 107.077 84.1523 105.856 82.4437C105.558 82.0331 105.02 81.6953 104.659 82.2019C103.74 83.4801 102.798 84.5166 101.833 85.3212C102.951 80.7019 104.002 76.2117 104.994 71.8506C105.03 71.6818 105.11 71.4467 105.229 71.1387C105.372 70.7711 105.392 70.5162 105.289 70.3771C105.478 70.3009 105.631 70.185 105.74 70.0294C107.103 68.1055 108.731 66.4995 110.629 65.2114C110.914 65.0193 110.99 64.6319 110.798 64.3438C110.755 64.2776 110.695 64.2213 110.629 64.1749C109.186 63.1914 107.886 62.0192 106.732 60.6583L106.974 60.4894C107.06 60.4298 107.113 60.3503 107.13 60.2477C107.965 54.9495 108.599 49.6281 109.037 44.2836C109.043 44.1909 109.013 44.1114 108.947 44.0485L108.688 43.8035L110.705 42.2504C110.944 42.065 110.983 41.7239 110.801 41.4855C110.778 41.4557 110.748 41.4259 110.718 41.3994L109.292 40.2371C109.667 34.9555 109.823 29.7434 109.75 24.5976C113.109 24.73 116.412 24.7102 119.659 24.5413L119.653 24.5347Z" fill="#F4F4F4"/>
<path d="M52.5172 24.5912H109.747C109.816 29.7371 109.664 34.9491 109.289 40.2341C107.793 38.9758 106.593 37.6777 105.691 36.3366C105.501 36.0518 105.117 35.9757 104.832 36.1644C104.765 36.2075 104.709 36.2638 104.666 36.33C103.392 38.1744 101.814 39.7639 99.9265 41.0983C99.4622 41.4262 99.2134 41.9229 99.7673 42.3136C101.644 43.6381 103.197 45.1547 104.43 46.8601C104.858 47.4495 105.399 47.6681 105.87 46.9727C106.676 45.7839 107.614 44.7276 108.692 43.7971L108.951 44.0421C109.02 44.1084 109.05 44.1845 109.04 44.2772C108.606 49.6218 107.969 54.9431 107.133 60.2413C107.117 60.3439 107.067 60.4267 106.977 60.483L106.735 60.6519C106.238 59.9863 105.389 58.2445 104.47 59.5294C103.177 61.3407 101.621 62.8904 99.8038 64.1851C99.2997 64.5427 99.2764 64.8871 99.7308 65.2183C101.767 66.7017 103.386 68.2945 104.586 69.9999C104.769 70.2581 104.997 70.3111 105.289 70.374C105.392 70.5131 105.372 70.7681 105.23 71.1357C105.107 71.4436 105.031 71.6787 104.994 71.8476C104.006 76.212 102.951 80.7022 101.833 85.3182L99.6811 87.1328C99.4091 87.3613 99.3759 87.762 99.6048 88.0335C99.6346 88.0699 99.6711 88.103 99.7109 88.1328L100.689 88.868C99.0708 94.0734 97.3197 99.163 95.4393 104.137C95.3829 104.286 95.2535 104.408 95.0479 104.508L83.4501 104.524L52.7925 104.508L42.0205 104.524V74.7682L42.0305 72.8973C42.3157 73.2351 42.581 73.5827 42.8297 73.9404C45.8511 78.2882 51.5123 76.6756 52.6366 71.6754L55.2931 71.7317C57.7142 71.9304 60.2778 71.9271 62.9774 71.7151C66.9307 71.7019 70.8906 71.6953 74.8538 71.6953C75.7758 71.6953 76.4623 71.5595 76.9133 71.2847C78.6479 70.235 78.5782 67.5892 76.7342 66.6388C76.3197 66.4236 75.6232 66.3176 74.6448 66.3209C70.5589 66.3276 66.41 66.3209 62.198 66.311C59.8997 66.0858 57.6545 66.0925 55.4623 66.3243L52.7029 66.3342L52.6001 63.0195C54.4109 63.0725 58.467 63.4666 60.049 62.7513C61.8598 61.9367 61.9062 59.0591 60.2579 58.0922C58.8451 57.2611 54.401 57.6849 52.6233 57.6882V48.7476L56.0161 48.7708L61.5878 48.7509C66.0518 48.7509 70.5092 48.7509 74.9566 48.7409C75.8322 48.7409 76.4988 48.6085 76.9531 48.3403C78.5815 47.3833 78.5484 44.562 76.7939 43.7011C76.3595 43.4858 75.6597 43.3765 74.6946 43.3732C70.5423 43.3567 66.3238 43.36 62.0355 43.3898L55.6546 43.4428L52.7029 43.4229L52.6134 40.0917C54.3811 40.1215 58.6594 40.5255 60.1551 39.7539C61.8167 38.8996 61.8863 36.1445 60.3508 35.2041C58.8484 34.2869 54.3612 34.724 52.5404 34.7604L52.5205 24.7634C52.5205 24.7104 52.494 24.674 52.4442 24.6574C52.4144 24.6475 52.3845 24.6475 52.3481 24.6574C52.3481 24.5879 52.4044 24.5647 52.5272 24.5813L52.5172 24.5912ZM61.422 83.1658C61.422 81.7452 60.2712 80.5962 58.8484 80.5962H53.0445C51.6218 80.5962 50.4709 81.7452 50.4709 83.1658V83.434C50.4709 84.8546 51.6218 86.0036 53.0445 86.0036H58.8484C60.2712 86.0036 61.422 84.8546 61.422 83.434V83.1658ZM55.2533 89.2488C54.1191 89.2885 52.7527 89.1229 51.8572 89.5998C49.8839 90.6495 49.99 93.5204 52.0131 94.4012C52.9749 94.8185 54.4209 94.6662 55.5684 94.6595C57.7142 94.8847 59.8732 94.8913 62.0455 94.6728C66.4498 94.6662 70.8408 94.6628 75.2153 94.6562C78.1404 94.6562 79.351 91.0766 76.8404 89.666C76.3761 89.4044 75.6962 89.2786 74.7974 89.2819C70.748 89.2984 66.7018 89.2918 62.6657 89.2587C60.0324 89.06 57.5616 89.0567 55.2533 89.2488Z" fill="#FAF9F6"/>
<path d="M41.9463 24.6671H52.3335C52.37 24.6572 52.4032 24.6572 52.4297 24.6671C52.4795 24.6837 52.506 24.7201 52.506 24.7731L52.5259 34.7701C49.6472 35.6708 49.7301 39.2338 52.5989 40.098L52.6884 43.4293C49.6704 44.0617 49.6804 47.9029 52.6154 48.7572V57.6979C49.7102 58.5125 49.6571 62.2212 52.5889 63.0292L52.6917 66.3439C49.7102 67.0856 49.6406 70.993 52.6254 71.6818C51.5011 76.6819 45.8399 78.2945 42.8185 73.9467C42.5731 73.5891 42.3045 73.2414 42.0193 72.9037L41.9463 24.6704V24.6671Z" fill="#F2F2F2"/>
<path d="M52.6033 40.0981C49.7346 39.2338 49.6516 35.6708 52.5304 34.7701C54.3511 34.7304 58.8383 34.2933 60.3407 35.2138C61.8762 36.1542 61.8066 38.906 60.145 39.7636C58.6493 40.5319 54.371 40.1312 52.6033 40.1014V40.0981Z" fill="#083B73"/>
<path d="M109.289 40.2308L110.715 41.393C110.947 41.5818 110.98 41.9262 110.788 42.158C110.761 42.1878 110.735 42.2176 110.701 42.2407L108.685 43.7938C107.607 44.7243 106.669 45.7806 105.863 46.9694C105.392 47.6648 104.851 47.4495 104.423 46.8568C103.19 45.1514 101.637 43.6348 99.7604 42.3103C99.2065 41.9195 99.4552 41.4228 99.9195 41.095C101.807 39.7605 103.389 38.1711 104.659 36.3267C104.851 36.0452 105.236 35.9724 105.518 36.1644C105.584 36.2075 105.64 36.2671 105.684 36.33C106.586 37.6678 107.786 38.9691 109.282 40.2274L109.289 40.2308Z" fill="#E7AD14"/>
<path d="M12.1812 40.7473V70.3342L11.6505 70.2945C11.5643 70.2879 11.498 70.321 11.4515 70.3938C8.70548 74.6489 2.958 73.8542 1.17373 69.2249C1.16046 69.1819 1.13724 69.1786 1.1074 69.2117L1.04438 69.2879C1.01453 69.321 0.997951 69.3143 0.991318 69.2713L0.915039 68.5296L0.941571 40.8102C1.14056 40.8499 1.30307 40.7473 1.42246 40.5055C3.03096 37.2439 6.7786 35.9988 9.76344 38.1644C10.629 38.7903 11.435 39.6545 12.1812 40.7506V40.7473Z" fill="#053779"/>
<path d="M55.6435 43.4491C52.7847 44.6047 53.0467 48.1313 56.0083 48.7804L52.6188 48.7572C49.6838 47.9028 49.6738 44.065 52.6918 43.4292L55.6435 43.4491Z" fill="#083B73"/>
<path d="M62.0242 43.3963C62.3426 43.6016 62.6311 43.8003 62.8965 43.9857C64.4221 45.0751 64.2463 47.7772 62.4355 48.4494C62.1602 48.5521 61.875 48.6514 61.5798 48.754L56.0081 48.7739C53.0465 48.1249 52.7845 44.5983 55.6433 43.4426L62.0242 43.3896V43.3963Z" fill="#0F4E87"/>
<path d="M62.0249 43.3961C66.3131 43.3663 70.5317 43.363 74.6839 43.3795C75.649 43.3829 76.3488 43.4921 76.7833 43.7074C78.541 44.5683 78.5742 47.3896 76.9425 48.3466C76.4881 48.6148 75.8215 48.7472 74.9459 48.7472C70.4985 48.7539 66.0445 48.7572 61.5771 48.7572C61.8723 48.6545 62.1575 48.5519 62.4328 48.4525C64.2436 47.7803 64.4194 45.0783 62.8938 43.9888C62.6318 43.8001 62.3399 43.6047 62.0216 43.3994L62.0249 43.3961Z" fill="#083B73"/>
<path d="M52.6161 57.6979C54.3937 57.6979 58.8378 57.2707 60.2506 58.1019C61.8989 59.0688 61.8525 61.9464 60.0417 62.7609C58.4564 63.4762 54.4037 63.0821 52.5929 63.0292C49.6611 62.2245 49.7175 58.5158 52.6161 57.6979Z" fill="#083B73"/>
<path d="M106.731 60.6581C107.885 62.0191 109.185 63.1913 110.628 64.1748C110.913 64.3701 110.99 64.7609 110.797 65.0457C110.754 65.1119 110.694 65.1682 110.628 65.2112C108.731 66.4993 107.099 68.1053 105.74 70.0292C105.627 70.1882 105.478 70.3041 105.289 70.3769C104.997 70.3173 104.768 70.261 104.585 70.0028C103.385 68.2974 101.766 66.7046 99.7301 65.2212C99.2757 64.89 99.299 64.5456 99.8031 64.188C101.62 62.8966 103.179 61.3436 104.469 59.5322C105.385 58.2441 106.237 59.9859 106.735 60.6548L106.731 60.6581Z" fill="#E7AD14"/>
<path d="M62.1874 66.3208C64.1972 67.7215 64.499 69.3076 63.0895 71.0759C63.0729 71.0958 63.053 71.1123 63.0298 71.1222C62.7778 71.2282 62.5522 71.3673 62.3532 71.5395C62.2405 71.6388 62.2604 71.6918 62.4096 71.6984L62.9668 71.7249C60.2672 71.9335 57.7035 71.9402 55.2825 71.7415C54.3605 70.9401 53.8332 70.2481 53.6939 69.6653C53.3788 68.3341 53.9658 67.2248 55.4516 66.334C57.6438 66.1022 59.8891 66.0989 62.1874 66.3208Z" fill="#0F4E87"/>
<path d="M52.6954 66.3405L55.4547 66.3306C53.9689 67.218 53.3852 68.3306 53.697 69.6618C53.833 70.2446 54.3636 70.9367 55.2856 71.738L52.6291 71.6817C49.6442 70.9896 49.7172 67.0856 52.6954 66.3438V66.3405Z" fill="#083B73"/>
<path d="M62.1875 66.3208C66.3961 66.334 70.5451 66.3374 74.6343 66.3307C75.6127 66.3307 76.3091 66.4334 76.7237 66.6486C78.5677 67.5957 78.6373 70.2448 76.9028 71.2945C76.4484 71.5693 75.7619 71.7051 74.8432 71.7051C70.88 71.7051 66.9201 71.7117 62.9669 71.7249L62.4097 71.6984C62.2571 71.6918 62.2372 71.6388 62.3533 71.5395C62.5523 71.3673 62.7778 71.2249 63.0299 71.1223C63.0531 71.1123 63.073 71.0958 63.0896 71.0759C64.4991 69.3076 64.2006 67.7248 62.1875 66.3208Z" fill="#083B73"/>
<path d="M0.912109 68.5261L0.988389 69.2679C0.995022 69.3109 1.0116 69.3175 1.04145 69.2844L1.10447 69.2083C1.13431 69.1751 1.15753 69.1785 1.1708 69.2215C2.95507 73.8508 8.70255 74.6455 11.4486 70.3904C11.495 70.3176 11.5614 70.2845 11.6476 70.2911L12.1782 70.3308L12.1119 91.752C11.5846 92.3248 11.0805 92.858 10.6029 93.348C8.23824 95.7819 4.85874 95.7157 2.51066 93.3547C1.88384 92.7255 1.51903 91.8016 0.978439 91.0202L0.912109 68.5261Z" fill="#053779"/>
<path d="M42.0133 74.7715V104.527L42.0199 111.087C42.0199 116.24 42.0199 121.445 42.0199 126.703C42.0199 130.253 40.6436 132.995 37.8942 134.926C36.876 135.644 35.4765 136.224 33.6955 136.671C29.3144 136.889 26.0941 135.23 24.0312 131.69C30.7836 122.594 34.8729 112.567 36.299 101.61C37.4465 92.782 36.7566 83.987 34.2361 75.2284C34.2162 75.1589 34.2228 75.0927 34.256 75.0298C34.2792 74.9834 34.2892 74.9371 34.2858 74.894C34.2792 74.8443 34.2228 74.8079 34.1267 74.788L42.0133 74.7748V74.7715Z" fill="#BCBCBC"/>
<path d="M34.1233 74.7846C34.2228 74.8044 34.2759 74.8409 34.2825 74.8905C34.2858 74.9336 34.2759 74.9799 34.2527 75.0263C34.2195 75.0892 34.2096 75.1554 34.2328 75.225C36.7566 83.9835 37.4431 92.7785 36.2956 101.607C34.8729 112.564 30.7836 122.591 24.0279 131.687L22.9998 129.064C23.0429 128.756 23.0429 128.409 22.9899 128.025C22.9302 127.571 22.9003 127.227 22.9003 126.998C22.897 111.127 22.8937 95.2554 22.9003 79.3807C22.9003 76.0561 23.7162 74.7945 27.0824 74.8111C29.4338 74.8243 31.7819 74.8144 34.1266 74.7812L34.1233 74.7846Z" fill="#F0F0F0"/>
<path d="M58.8482 80.5962H53.0443C51.6229 80.5962 50.4707 81.7466 50.4707 83.1658V83.4307C50.4707 84.8499 51.6229 86.0003 53.0443 86.0003H58.8482C60.2695 86.0003 61.4218 84.8499 61.4218 83.4307V83.1658C61.4218 81.7466 60.2695 80.5962 58.8482 80.5962Z" fill="#083B73"/>
<path d="M100.682 88.8744L99.7038 88.1393C99.4219 87.9273 99.3655 87.5267 99.5778 87.2452C99.6076 87.2055 99.6408 87.1723 99.6773 87.1392L101.83 85.3246C102.795 84.5233 103.737 83.4835 104.655 82.2053C105.02 81.6987 105.557 82.0364 105.853 82.447C107.073 84.1524 108.655 85.7021 110.592 87.0929C111.249 87.5664 110.751 88.073 110.28 88.4042C108.532 89.6459 107.043 91.146 105.809 92.9043C105.392 93.5003 104.864 93.3811 104.473 92.8248C103.465 91.3711 102.198 90.0565 100.679 88.8744H100.682Z" fill="#E7AD14"/>
<path d="M62.6645 89.2552C62.4953 89.2717 62.4688 89.3711 62.5816 89.5466C62.6214 89.6062 62.6844 89.6658 62.7706 89.7287C64.7207 91.1427 64.1171 93.7056 62.041 94.6693C59.8687 94.8878 57.713 94.8845 55.5639 94.656C54.3467 94.0533 53.7033 93.1924 53.6403 92.0732C53.5872 91.1526 54.1245 90.2122 55.2488 89.2419C57.5571 89.0499 60.0279 89.0532 62.6612 89.2519L62.6645 89.2552Z" fill="#0F4E87"/>
<path d="M55.2495 89.2451C54.1252 90.212 53.5879 91.1558 53.641 92.0763C53.7073 93.1956 54.3474 94.0565 55.5646 94.6592C54.4138 94.6658 52.9711 94.8181 52.0093 94.4009C49.9896 93.5201 49.8834 90.6458 51.8534 89.5994C52.7489 89.1226 54.1153 89.2882 55.2495 89.2484V89.2451Z" fill="#083B73"/>
<path d="M62.6651 89.2554C66.7046 89.2885 70.7474 89.2984 74.7968 89.2785C75.6956 89.2752 76.3755 89.4044 76.8398 89.6627C79.3504 91.0733 78.1399 94.6496 75.2147 94.6529C70.8369 94.6562 66.4492 94.6628 62.0449 94.6694C64.121 93.7025 64.7246 91.1428 62.7745 89.7289C62.6883 89.666 62.6253 89.6064 62.5855 89.5468C62.4727 89.3713 62.4993 89.2752 62.6684 89.2554H62.6651Z" fill="#083B73"/>
<path d="M0.978994 91.0203C1.51958 91.7984 1.88771 92.7223 2.51121 93.3548C4.85929 95.7158 8.24211 95.782 10.6035 93.3481C11.081 92.8581 11.5851 92.3249 12.1125 91.7521L12.1257 143.919C12.1257 144.035 12.1821 144.091 12.2982 144.091L24.7947 144.105C24.8378 144.131 24.8876 144.141 24.944 144.131C25.0169 144.124 25.0932 144.151 25.143 144.207C27.1693 146.469 29.7827 147.601 32.9865 147.605C53.4326 147.621 73.9319 147.333 94.3681 147.658C92.8724 151.979 89.8776 154.489 85.3904 155.191H10.2884C5.92057 154.439 2.55433 151.724 1.42009 147.578C1.12492 146.499 0.975678 144.492 0.975678 141.555C0.969045 124.713 0.969045 107.872 0.975678 91.0269L0.978994 91.0203Z" fill="#053779"/>
<path d="M83.4429 104.531C83.4263 104.57 83.3866 104.593 83.3235 104.6C83.2672 104.6 83.224 104.653 83.2274 104.709C83.2274 104.749 83.2539 104.782 83.2871 104.799C86.378 106.226 85.8673 109.445 83.1643 111.127H52.3608C52.2646 110.806 52.0291 110.501 51.6544 110.213C49.3593 108.438 50.5035 105.835 52.782 104.517L83.4396 104.534L83.4429 104.531Z" fill="#FCBE32"/>
<path d="M52.7856 104.511C50.5072 105.829 49.363 108.431 51.658 110.206C52.0328 110.494 52.2683 110.799 52.3644 111.12L42.0203 111.084L42.0137 104.524L52.7856 104.507V104.511Z" fill="#E7AD14"/>
<path d="M83.4432 104.53L95.041 104.514H95.3428L92.7095 111.113H92.2419L83.168 111.127C85.8676 109.445 86.3783 106.226 83.2907 104.799C83.2376 104.776 83.2144 104.716 83.2376 104.663C83.2542 104.627 83.2874 104.603 83.3272 104.603C83.3869 104.597 83.4267 104.574 83.4466 104.534L83.4432 104.53Z" fill="#E7AD14"/>
<path d="M95.3423 104.507H119.642V111.16L92.709 111.107L95.3423 104.504V104.507Z" fill="#D1950F"/>
<path d="M42.0168 111.087L52.3609 111.123H83.1645L92.2384 111.107C92.2749 111.17 92.3313 111.199 92.4109 111.196C92.4938 111.193 92.5634 111.256 92.5668 111.335C92.5668 111.362 92.5635 111.385 92.5535 111.408L87.9635 121.448L81.0983 121.395L69.7194 121.425C64.1975 121.392 58.8148 121.389 53.5648 121.415C49.3827 121.438 49.2235 126.856 53.7936 126.852C59.0735 126.852 64.3998 126.852 69.7692 126.869C73.3941 127.087 76.9395 127.091 80.4052 126.885L85.2373 126.862L79.8513 136.598L33.6924 136.674C35.47 136.227 36.8696 135.644 37.8911 134.929C40.6371 132.998 42.0135 130.26 42.0168 126.707C42.0168 121.448 42.0168 116.243 42.0168 111.09V111.087Z" fill="#FAF9F6"/>
<path d="M92.2416 111.107H92.7092L119.646 111.16C119.639 116.375 119.639 121.581 119.646 126.776C119.652 130.981 117.042 134.948 112.97 136.213C111.955 136.528 110.2 136.69 107.703 136.694C103.445 136.7 99.1631 136.7 94.855 136.694L83.5126 136.687L79.8545 136.588L85.2405 126.852C86.4377 126.872 87.7079 126.859 89.0544 126.816C90.8288 126.76 92.0393 125.491 91.7408 123.67C91.4722 122.038 90.2119 121.296 87.9666 121.441L92.5567 111.401C92.5931 111.329 92.56 111.239 92.487 111.203C92.4638 111.193 92.4406 111.186 92.414 111.19C92.3345 111.193 92.2781 111.163 92.2416 111.1V111.107ZM99.8894 124.524C101.8 125.915 103.392 127.524 104.659 129.349C104.854 129.627 105.239 129.697 105.518 129.501C105.577 129.462 105.627 129.412 105.667 129.352C106.99 127.485 108.559 125.905 110.37 124.614C110.86 124.266 111.179 123.786 110.552 123.349C108.711 122.061 107.159 120.544 105.899 118.799C105.564 118.339 105.06 117.931 104.615 118.537C103.203 120.468 101.637 122.038 99.916 123.246C99.2925 123.683 99.256 124.071 99.8861 124.528L99.8894 124.524Z" fill="#E8E8E8"/>
<path d="M99.8889 124.525C99.2587 124.068 99.2985 123.68 99.9187 123.243C101.64 122.034 103.205 120.465 104.618 118.534C105.063 117.928 105.567 118.336 105.902 118.796C107.162 120.541 108.714 122.058 110.555 123.346C111.182 123.786 110.863 124.263 110.372 124.611C108.558 125.902 106.993 127.482 105.67 129.349C105.474 129.627 105.089 129.694 104.811 129.495C104.754 129.455 104.701 129.402 104.661 129.346C103.394 127.521 101.802 125.915 99.8922 124.521L99.8889 124.525Z" fill="#083B73"/>
<path d="M81.102 121.395C80.9129 121.471 80.7305 121.501 80.5548 121.481C80.3657 121.458 80.3491 121.501 80.5083 121.607C82.747 123.114 82.5712 125.313 80.4088 126.882C76.9398 127.091 73.3944 127.084 69.7728 126.866C67.5143 125.124 67.4977 123.309 69.7231 121.425L81.102 121.395Z" fill="#0F4E87"/>
<path d="M69.7225 121.425C67.4938 123.309 67.5104 125.124 69.7722 126.866C64.4028 126.852 59.0765 126.849 53.7967 126.849C49.2299 126.849 49.3857 121.438 53.5678 121.412C58.8145 121.382 64.2005 121.385 69.7225 121.422V121.425Z" fill="#083B73"/>
<path d="M81.1017 121.395L87.9668 121.448C90.2154 121.303 91.4723 122.048 91.741 123.677C92.0428 125.498 90.8289 126.763 89.0546 126.823C87.7081 126.866 86.4346 126.879 85.2406 126.859L80.4085 126.882C82.5709 125.313 82.75 123.114 80.508 121.607C80.3488 121.501 80.3621 121.458 80.5544 121.481C80.7269 121.501 80.9093 121.475 81.1017 121.395Z" fill="#083B73"/>
<path d="M23.0028 129.068L24.0309 131.69C26.0938 135.23 29.3141 136.892 33.6952 136.671L79.8541 136.594L83.5122 136.694L83.5189 143.664C83.5189 143.869 83.416 143.972 83.2137 143.972L25.0657 144.032C23.7291 142.475 23.0227 140.671 22.9398 138.611C22.8303 135.942 22.8536 132.76 23.0094 129.068H23.0028Z" fill="#EBEBEB"/>
<path d="M83.5087 136.694L94.8512 136.7C94.9009 141.201 95.1496 144.797 94.3703 147.654C73.934 147.33 53.4348 147.621 32.9886 147.601C29.7849 147.598 27.1682 146.466 25.1451 144.204C25.092 144.148 25.0191 144.121 24.9461 144.128C24.8931 144.134 24.8433 144.128 24.7969 144.101C24.8499 144.058 24.9362 144.035 25.0622 144.032L83.2103 143.972C83.4159 143.972 83.5154 143.87 83.5154 143.664L83.5087 136.694Z" fill="#053779"/>
</svg>
