<svg width="153" height="152" viewBox="0 0 153 152" fill="none" xmlns="http://www.w3.org/2000/svg">
<g clip-path="url(#clip0_716_629)">
<path d="M82.8543 45.8782C81.6077 47.0429 80.6527 48.4287 79.9951 50.0356C79.9297 50.1948 79.7452 50.2685 79.5875 50.2007C79.5191 50.1742 79.4656 50.1211 79.4299 50.0592C76.9396 45.2855 74.9195 40.2848 73.3724 35.0541C72.8012 33.1229 72.5037 30.711 71.8878 28.9861C70.8733 26.1525 69.231 23.608 66.9609 21.3464" stroke="#B36F56" stroke-width="2"/>
<path d="M66.9598 21.3465C66.0584 20.173 65.3681 19.4624 64.8921 19.2147C63.1278 18.2948 62.3245 19.2796 61.8872 20.8895C58.9566 31.6133 45.7767 31.398 37.0475 30.2422C26.6136 28.8594 17.3341 37.0032 14.2072 46.2645C13.8382 47.3584 13.6954 48.5998 13.4961 49.8322" stroke="#B47D63" stroke-width="2"/>
<path d="M13.4962 49.8321C12.1723 48.0335 10.762 46.7184 9.27148 45.887" stroke="#B36F56" stroke-width="2"/>
<path d="M140.706 0.258545C140.697 0.326361 140.739 0.42956 140.828 0.571089C140.885 0.656596 140.965 0.727361 141.069 0.783383C142.738 1.6532 143.628 2.97709 143.744 4.75505C143.851 6.38559 143.815 8.95375 143.637 12.4596" stroke="#F7ECD7" stroke-width="2"/>
<path d="M143.637 12.4595C142.982 11.9435 142.375 11.687 141.816 11.687C135.622 11.6841 129.427 11.6841 123.236 11.687C119.428 11.69 119.597 16.1246 123.001 16.1216C129.365 16.1157 135.729 16.1098 142.096 16.101C142.465 16.101 142.979 15.8415 143.64 15.3196" stroke="#BCA08E" stroke-width="2"/>
<path d="M143.639 15.3196C143.879 17.8848 143.862 20.4648 143.592 23.0565" stroke="#F7ECD7" stroke-width="2"/>
<path d="M143.593 23.0566C142.959 22.5554 142.293 22.3047 141.593 22.3018C132.846 22.2959 124.099 22.2959 115.352 22.3018C114.392 22.3018 113.713 22.3961 113.317 22.5789C111.744 23.3161 111.705 25.5599 113.246 26.4297C113.588 26.6214 114.124 26.7187 114.85 26.7187C123.963 26.7216 133.076 26.7216 142.188 26.7187C142.513 26.7187 143.001 26.4592 143.649 25.9403" stroke="#BCA08E" stroke-width="2"/>
<path d="M143.648 25.9402C143.885 28.4848 143.865 31.0677 143.586 33.6889" stroke="#F7ECD7" stroke-width="2"/>
<path d="M143.586 33.6889C143.012 33.223 142.446 32.9871 141.89 32.9812C132.89 32.9016 123.887 32.9105 114.887 33.0078C114.001 33.0166 113.352 33.1611 112.939 33.4353C111.763 34.2167 111.868 36.4015 113.23 37.0856C113.557 37.2477 114.048 37.3303 114.7 37.3333C123.905 37.3392 133.11 37.3392 142.318 37.3333C142.616 37.3333 143.035 37.0885 143.574 36.602" stroke="#BCA08E" stroke-width="2"/>
<path d="M143.574 36.6021C143.978 37.4158 143.758 38.1559 143.764 38.8606C143.803 41.8711 143.758 44.9818 143.634 48.1868" stroke="#F7ECD7" stroke-width="2"/>
<path d="M143.632 48.1868C142.412 46.7037 140.964 45.9607 139.286 45.9607H117.302C113.41 45.9607 111.182 47.1932 111.143 51.3536C111.066 60.2257 111.173 69.1096 111.167 77.9847C111.167 79.1611 111.301 80.0545 111.569 80.659C112.923 83.7195 115.838 83.463 118.7 83.4247C121.699 83.3834 126.528 83.4158 133.186 83.519C136.328 83.5692 138.652 83.5249 140.16 83.3893C141.425 83.2773 142.6 82.5195 143.689 81.1189" stroke="#F195AF" stroke-width="2"/>
<path d="M143.69 81.1189C143.752 84.3534 143.776 87.5084 143.758 90.5837C143.74 93.5116 142.681 95.5166 139.652 96.2478" stroke="#F7ECD7" stroke-width="2"/>
<path d="M143.689 81.1189C143.77 80.8506 143.88 80.5026 144.02 80.0751C144.133 79.7242 144.196 79.3675 144.211 79.0077C144.345 75.2602 144.205 70.3685 144.202 67.7856C144.193 62.0095 144.19 56.2333 144.196 50.4571C144.196 50.065 144.136 49.6787 144.008 49.3043C143.856 48.8472 143.731 48.4728 143.633 48.1868" stroke="#ED8FA7" stroke-width="2"/>
<path d="M143.574 36.6021C144.246 35.6497 144.249 34.6797 143.586 33.689" stroke="#B89986" stroke-width="2"/>
<path d="M143.648 25.9403C144.24 24.9732 144.222 24.012 143.592 23.0566" stroke="#B89986" stroke-width="2"/>
<path d="M143.64 15.3195C144.226 14.3849 144.226 13.4325 143.637 12.4595" stroke="#B89986" stroke-width="2"/>
<path d="M66.9606 21.3464C69.2188 25.8783 70.385 30.4957 70.4594 35.1986C70.5755 42.4608 70.5963 50.4219 70.5219 59.0817C70.5011 61.5968 70.388 63.5546 70.1768 64.9611C68.0436 79.2762 56.9938 90.2241 42.5732 92.6359C41.1778 92.8689 38.9822 92.2025 37.4023 91.7632" stroke="#EA9F7C" stroke-width="2"/>
<path d="M13.6329 63.5958L13.4961 49.832" stroke="#EA9F7C" stroke-width="2"/>
<path d="M55.8132 100.075L46.8312 105.533C46.6973 105.615 46.5307 105.615 46.3939 105.533L37.4297 100.09" stroke="#F2C2A7" stroke-width="2"/>
<path d="M129.912 53.7124C129.912 52.5271 128.945 51.5688 127.749 51.5688H127.618C126.422 51.5688 125.455 52.5271 125.455 53.7124V66.4442C125.455 67.6295 126.422 68.5878 127.618 68.5878H127.749C128.945 68.5878 129.912 67.6295 129.912 66.4442V53.7124Z" stroke="#F38860" stroke-width="2"/>
<path d="M129.876 72.7775C129.876 71.6659 128.968 70.7666 127.847 70.7666H127.519C126.398 70.7666 125.49 71.6659 125.49 72.7775V74.352C125.49 75.4636 126.398 76.3629 127.519 76.3629H127.847C128.968 76.3629 129.876 75.4636 129.876 74.352V72.7775Z" stroke="#F38860" stroke-width="2"/>
<path d="M62.5355 105.642L53.7052 115.416C53.4612 115.687 53.0387 115.714 52.765 115.472C52.7174 115.431 52.6758 115.381 52.6401 115.325L46.7284 105.845C46.654 105.727 46.5796 105.727 46.5053 105.845L40.6234 115.289C40.4181 115.617 39.9867 115.717 39.6564 115.516C39.5999 115.481 39.5493 115.44 39.5047 115.39L30.7012 105.686" stroke="#91DCDD" stroke-width="2"/>
<path d="M51.5047 131.276C51.5047 128.605 49.318 126.438 46.6225 126.438C43.927 126.438 41.7402 128.605 41.7402 131.276C41.7402 133.948 43.927 136.115 46.6225 136.115C49.318 136.115 51.5047 133.948 51.5047 131.276Z" stroke="#91DCDD" stroke-width="2"/>
<path d="M42.397 0.258545H48.6329C53.6431 0.600574 58.8556 1.43206 62.9584 4.64301C63.4403 5.02042 64.2942 5.52756 64.7583 5.56295C74.1718 6.2588 82.7313 10.7936 84.7871 20.6594C85.6886 24.979 85.7749 29.2603 85.04 33.5032C84.326 37.6341 83.4007 41.7148 82.8533 45.8782C81.6067 47.0428 80.6517 48.4286 79.9942 50.0356C79.9287 50.1948 79.7442 50.2685 79.5866 50.2007C79.5181 50.1742 79.4646 50.1211 79.4289 50.0592C76.9387 45.2855 74.9185 40.2848 73.3714 35.0541C72.8002 33.1228 72.5027 30.7109 71.8868 28.9861C70.8723 26.1525 69.23 23.6079 66.96 21.3464C66.0585 20.1729 65.3682 19.4623 64.8922 19.2146C63.1279 18.2947 62.3246 19.2795 61.8873 20.8894C58.9568 31.6132 45.7768 31.3979 37.0476 30.2421C26.6137 28.8593 17.3342 37.0031 14.2073 46.2644C13.8384 47.3583 13.6955 48.5997 13.4962 49.8321C12.1723 48.0335 10.762 46.7185 9.27147 45.887C6.84671 36.7731 5.3621 23.5519 10.6043 15.3668C17.1527 5.14426 30.9961 1.0458 42.397 0.258545Z" fill="#757575"/>
<path d="M106.13 0.258545H140.704C140.695 0.326361 140.737 0.42956 140.826 0.571089C140.882 0.656596 140.963 0.727361 141.067 0.783383C142.736 1.6532 143.626 2.97709 143.742 4.75505C143.849 6.38559 143.813 8.95375 143.635 12.4596C142.98 11.9436 142.373 11.687 141.814 11.687C135.619 11.6841 129.425 11.6841 123.234 11.687C119.426 11.69 119.595 16.1246 122.999 16.1216C129.363 16.1157 135.727 16.1098 142.093 16.101C142.462 16.101 142.977 15.8415 143.637 15.3196C143.878 17.8848 143.861 20.4648 143.59 23.0566C142.956 22.5553 142.29 22.3047 141.591 22.3017C132.844 22.2958 124.097 22.2958 115.35 22.3017C114.389 22.3017 113.71 22.3961 113.315 22.5789C111.741 23.316 111.702 25.5599 113.243 26.4297C113.585 26.6213 114.121 26.7186 114.847 26.7186C123.96 26.7216 133.073 26.7216 142.186 26.7186C142.51 26.7186 142.998 26.4592 143.646 25.9402C143.884 28.4848 143.864 31.0677 143.584 33.6889C143.01 33.2231 142.444 32.9872 141.888 32.9813C132.888 32.9017 123.885 32.9105 114.885 33.0078C113.999 33.0167 113.35 33.1612 112.937 33.4354C111.762 34.2167 111.866 36.4016 113.228 37.0857C113.556 37.2478 114.046 37.3304 114.698 37.3333C123.903 37.3392 133.108 37.3392 142.317 37.3333C142.614 37.3333 143.034 37.0886 143.572 36.6021C143.977 37.4159 143.757 38.156 143.762 38.8607C143.801 41.8711 143.757 44.9818 143.632 48.1869C142.412 46.7038 140.963 45.9607 139.285 45.9607H117.301C113.41 45.9607 111.181 47.1932 111.143 51.3536C111.065 60.2257 111.172 69.1096 111.167 77.9847C111.167 79.1611 111.3 80.0545 111.568 80.659C112.922 83.7196 115.838 83.463 118.7 83.4247C121.699 83.3834 126.527 83.4159 133.186 83.5191C136.328 83.5692 138.651 83.525 140.16 83.3893C141.424 83.2773 142.599 82.5195 143.688 81.119C143.751 84.3535 143.774 87.5084 143.757 90.5837C143.739 93.5116 142.679 95.5166 139.651 96.2479C129.086 96.2272 118.515 96.2243 107.944 96.2361C103.836 96.242 101.566 94.9328 101.572 90.5778C101.575 88.0156 101.575 85.4563 101.572 82.8969C101.572 81.9947 101.081 81.6084 100.105 81.7352C95.4904 82.3367 90.8461 82.95 86.1662 83.5721C86.0055 83.5928 85.8449 83.5368 85.7348 83.4218C85.476 83.1535 85.5027 82.8792 85.8122 82.605C90.9175 78.0554 96.02 73.5029 101.122 68.9533C101.286 68.8059 101.414 68.514 101.5 68.0776C101.548 67.8388 101.572 67.5263 101.572 67.14C101.575 46.7863 101.575 26.4356 101.572 6.08484C101.572 2.92991 102.687 0.736206 106.13 0.258545Z" fill="#063779"/>
<path d="M140.704 0.258545H149.031C151.135 0.845302 152.45 2.17804 152.97 4.25675V92.2674C152.14 95.3899 150.055 96.2803 146.951 96.3098C144.521 96.3334 142.087 96.3098 139.65 96.2479C142.679 95.5166 143.738 93.5116 143.756 90.5837C143.774 87.5084 143.75 84.3535 143.688 81.119C143.768 80.8507 143.878 80.5027 144.018 80.0752C144.131 79.7243 144.193 79.3676 144.208 79.0078C144.342 75.2603 144.202 70.3686 144.199 67.7857C144.19 62.0096 144.188 56.2334 144.193 50.4572C144.193 50.0651 144.134 49.6788 144.006 49.3044C143.854 48.8473 143.729 48.4729 143.631 48.1869C143.756 44.9818 143.801 41.8711 143.762 38.8607C143.756 38.156 143.976 37.4159 143.572 36.6021C144.244 35.6497 144.247 34.6797 143.584 33.689C143.863 31.0677 143.884 28.4848 143.646 25.9402C144.238 24.9731 144.22 24.0119 143.59 23.0566C143.86 20.4648 143.878 17.8848 143.637 15.3196C144.223 14.3849 144.223 13.4326 143.634 12.4596C143.813 8.95375 143.848 6.38559 143.741 4.75505C143.625 2.97709 142.736 1.6532 141.067 0.783383C140.962 0.727361 140.882 0.656596 140.826 0.571089C140.736 0.42956 140.695 0.326361 140.704 0.258545Z" fill="#073568"/>
<path d="M143.635 12.4595C144.224 13.4326 144.224 14.3849 143.638 15.3196C142.977 15.8415 142.463 16.101 142.094 16.101C135.727 16.1098 129.363 16.1157 122.999 16.1216C119.595 16.1246 119.426 11.69 123.234 11.687C129.425 11.6841 135.62 11.6841 141.814 11.687C142.373 11.687 142.98 11.9435 143.635 12.4595Z" fill="#FAF9F6"/>
<path d="M66.9599 21.3465C69.218 25.8784 70.3843 30.4958 70.4586 35.1987C70.5747 42.4609 70.5955 50.4219 70.5211 59.0818C70.5003 61.5969 70.3872 63.5547 70.176 64.9611C68.0428 79.2762 56.993 90.2241 42.5724 92.636C41.177 92.8689 38.9814 92.2026 37.4016 91.7632C24.1859 87.7945 15.4508 77.1857 13.633 63.596L13.4961 49.8322C13.6954 48.5997 13.8382 47.3584 14.2072 46.2645C17.3341 37.0032 26.6136 28.8594 37.0475 30.2422C45.7767 31.398 58.9567 31.6133 61.8872 20.8895C62.3245 19.2796 63.1278 18.2948 64.8921 19.2147C65.3681 19.4624 66.0584 20.173 66.9599 21.3465Z" fill="#FAF9F6"/>
<path d="M66.9587 21.3464C69.2287 23.608 70.871 26.1525 71.8855 28.9861C72.5014 30.711 72.7989 33.1229 73.3702 35.0541C74.9172 40.2848 76.9374 45.2855 79.4276 50.0592C79.5079 50.2096 79.6954 50.2685 79.8501 50.1919C79.9155 50.1595 79.9661 50.1034 79.9929 50.0356C80.6504 48.4287 81.6054 47.0429 82.852 45.8782C89.7812 46.4502 91.6109 54.6176 89.6175 59.9869C88.124 64.0087 83.8755 66.7774 79.6567 64.4628C79.5972 64.4303 79.5228 64.4539 79.4901 64.5129C79.4841 64.5247 79.4782 64.5394 79.4782 64.5512C77.6752 77.5542 68.6277 87.9006 55.9803 91.7779C55.8821 91.8074 55.8315 91.8723 55.8315 91.9755L55.8107 100.075L46.8287 105.533C46.6948 105.615 46.5282 105.615 46.3913 105.533L37.4272 100.09L37.4004 91.7632C38.9802 92.2025 41.1759 92.8689 42.5712 92.6359C56.9919 90.2241 68.0416 79.2762 70.1748 64.9611C70.3861 63.5546 70.4991 61.5968 70.5199 59.0817C70.5943 50.4219 70.5735 42.4608 70.4575 35.1986C70.3831 30.4957 69.2168 25.8783 66.9587 21.3464Z" fill="#E5E5E5"/>
<path d="M143.591 23.0566C144.222 24.0119 144.239 24.9732 143.647 25.9403C142.999 26.4592 142.511 26.7187 142.187 26.7187C133.074 26.7216 123.961 26.7216 114.848 26.7187C114.122 26.7187 113.586 26.6214 113.244 26.4297C111.703 25.5599 111.742 23.3161 113.316 22.5789C113.711 22.3961 114.39 22.3047 115.351 22.3018C124.098 22.2959 132.845 22.2959 141.592 22.3018C142.291 22.3018 142.957 22.5554 143.591 23.0566Z" fill="#FAF9F6"/>
<path d="M143.584 33.6889C144.247 34.6796 144.244 35.6496 143.572 36.602C143.033 37.0885 142.614 37.3333 142.316 37.3333C133.108 37.3392 123.903 37.3392 114.698 37.3333C114.046 37.3333 113.556 37.2477 113.228 37.0856C111.866 36.4015 111.761 34.2167 112.937 33.4353C113.35 33.1611 113.999 33.0166 114.885 33.0078C123.885 32.9105 132.888 32.9016 141.888 32.9812C142.444 32.9871 143.01 33.223 143.584 33.6889Z" fill="#FAF9F6"/>
<path d="M143.632 48.1868C143.73 48.4728 143.855 48.8473 144.007 49.3043C144.135 49.6788 144.198 50.065 144.195 50.4572C144.189 56.2334 144.192 62.0095 144.2 67.7857C144.203 70.3686 144.343 75.2602 144.209 79.0078C144.195 79.3675 144.132 79.7243 144.019 80.0752C143.879 80.5027 143.769 80.8506 143.689 81.1189C142.6 82.5195 141.425 83.2773 140.16 83.3893C138.652 83.5249 136.328 83.5692 133.186 83.519C126.528 83.4158 121.699 83.3834 118.7 83.4247C115.838 83.463 112.923 83.7195 111.569 80.659C111.301 80.0545 111.167 79.1611 111.167 77.9847C111.173 69.1096 111.066 60.2257 111.143 51.3536C111.182 47.1932 113.41 45.9607 117.302 45.9607H139.286C140.964 45.9607 142.412 46.7037 143.632 48.1868ZM129.911 53.7124C129.911 52.5271 128.944 51.5688 127.748 51.5688H127.617C126.421 51.5688 125.454 52.5271 125.454 53.7124V66.4441C125.454 67.6294 126.421 68.5877 127.617 68.5877H127.748C128.944 68.5877 129.911 67.6294 129.911 66.4441V53.7124ZM129.875 72.7776C129.875 71.666 128.968 70.7667 127.846 70.7667H127.519C126.397 70.7667 125.49 71.666 125.49 72.7776V74.3521C125.49 75.4637 126.397 76.363 127.519 76.363H127.846C128.968 76.363 129.875 75.4637 129.875 74.3521V72.7776Z" fill="#FAF9F6"/>
<path d="M127.747 51.5688H127.616C126.422 51.5688 125.453 52.5286 125.453 53.7124V66.4442C125.453 67.628 126.422 68.5878 127.616 68.5878H127.747C128.942 68.5878 129.91 67.628 129.91 66.4442V53.7124C129.91 52.5286 128.942 51.5688 127.747 51.5688Z" fill="#FCA926"/>
<path d="M127.845 70.7666H127.517C126.397 70.7666 125.488 71.6669 125.488 72.7775V74.352C125.488 75.4626 126.397 76.3629 127.517 76.3629H127.845C128.965 76.3629 129.874 75.4626 129.874 74.352V72.7775C129.874 71.6669 128.965 70.7666 127.845 70.7666Z" fill="#FCA926"/>
<path d="M37.428 100.09L46.3922 105.533C46.5291 105.615 46.6957 105.615 46.8296 105.533L55.8116 100.075L62.5355 105.642L53.7052 115.416C53.4612 115.687 53.0387 115.714 52.765 115.472C52.7174 115.431 52.6758 115.381 52.6401 115.325L46.7284 105.845C46.654 105.727 46.5796 105.727 46.5053 105.845L40.6234 115.289C40.4181 115.617 39.9867 115.717 39.6564 115.516C39.5999 115.481 39.5493 115.44 39.5047 115.39L30.7012 105.686L37.428 100.09Z" fill="#F5AE21"/>
<path d="M62.535 105.642C66.4324 105.427 69.9967 105.881 73.2248 107.004C83.144 110.448 90.5432 118.618 92.242 128.979C92.4652 130.336 92.5752 132.296 92.5752 134.859C92.5752 139.685 92.5752 144.509 92.5723 149.336C92.5723 150.359 92.1438 150.905 91.2156 151.223H2.18966C1.34769 150.984 0.832989 150.459 0.642578 149.654V132.559C1.00257 125.695 3.6475 119.311 8.43157 114.387C14.37 108.272 21.793 105.37 30.7007 105.686L39.5042 115.39C39.763 115.676 40.2093 115.696 40.4949 115.44C40.5455 115.395 40.5872 115.345 40.6229 115.289L46.5048 105.845C46.5792 105.727 46.6535 105.727 46.7279 105.845L52.6396 115.325C52.833 115.634 53.2435 115.732 53.5559 115.54C53.6125 115.508 53.6601 115.463 53.7047 115.416L62.535 105.642ZM51.5031 131.276C51.5031 128.605 49.3163 126.438 46.6208 126.438C43.9253 126.438 41.7386 128.605 41.7386 131.276C41.7386 133.948 43.9253 136.115 46.6208 136.115C49.3163 136.115 51.5031 133.948 51.5031 131.276Z" fill="#063779"/>
<path d="M46.6205 136.115C49.3169 136.115 51.5028 133.949 51.5028 131.276C51.5028 128.604 49.3169 126.438 46.6205 126.438C43.9241 126.438 41.7383 128.604 41.7383 131.276C41.7383 133.949 43.9241 136.115 46.6205 136.115Z" fill="#F5AE21"/>
</g>
<defs>
<clipPath id="clip0_716_629">
<rect width="152.329" height="151" fill="white" transform="translate(0.642578 0.223145)"/>
</clipPath>
</defs>
</svg>
