<svg width="225" height="169" viewBox="0 0 225 169" fill="none" xmlns="http://www.w3.org/2000/svg">
<rect x="1.48047" y="1" width="221.723" height="167" rx="14" fill="#FBFBFB" stroke="#053779" stroke-width="2"/>
<path d="M90.8746 60.2725C88.9488 60.2725 87.1018 61.0258 85.7401 62.3666C84.3783 63.7075 83.6133 65.5262 83.6133 67.4225V103.172C83.6133 105.069 84.3783 106.887 85.7401 108.228C87.1018 109.569 88.9488 110.322 90.8746 110.322H134.443C136.368 110.322 138.215 109.569 139.577 108.228C140.939 106.887 141.704 105.069 141.704 103.172V67.4225C141.704 65.5262 140.939 63.7075 139.577 62.3666C138.215 61.0258 136.368 60.2725 134.443 60.2725H90.8746ZM134.443 63.8475C135.406 63.8475 136.329 64.2241 137.01 64.8946C137.691 65.565 138.073 66.4743 138.073 67.4225V90.66L124.36 83.6994C124.02 83.5315 123.634 83.4732 123.258 83.5329C122.882 83.5926 122.535 83.7671 122.265 84.0319L108.796 97.2952L99.138 90.9603C98.7893 90.7317 98.3711 90.6289 97.9542 90.6693C97.5373 90.7097 97.1474 90.8908 96.8507 91.1819L87.244 99.5975V67.4225C87.244 66.4743 87.6265 65.565 88.3073 64.8946C88.9882 64.2241 89.9117 63.8475 90.8746 63.8475H134.443Z" fill="#FBFBFB"/>
<path d="M110.999 21C110.806 22.4485 110.841 23.9415 111.108 25.4789C111.211 26.0761 111.098 26.6384 111.137 27.2515C111.143 27.3372 111.124 27.4166 111.082 27.4929C110.79 28.0107 110.941 28.5221 110.828 29.0843" stroke="#FBFBFB" stroke-width="1.59"/>
<path d="M110.826 29.0874L107.047 29.3066" stroke="#EFEAF5" stroke-width="1.59"/>
<path d="M114.712 29.2495C113.523 29.0526 112.315 28.989 111.081 29.0621C111.036 29.0621 110.997 29.0748 110.965 29.1002C110.916 29.132 110.887 29.1606 110.871 29.186" stroke="#FBFBFB" stroke-width="1.59"/>
<path d="M110.873 29.1891C110.794 29.1732 110.778 29.1414 110.826 29.0874" stroke="#E9E3F4" stroke-width="1.59"/>
<path d="M110.875 29.1895L110.881 54.1921" stroke="#EFEAF5" stroke-width="1.59"/>
<path d="M110.877 54.1919C110.864 54.2295 110.848 54.2514 110.836 54.2545" stroke="#E9E3F4" stroke-width="1.59"/>
<path d="M110.834 54.252L81.6602 54.2582" stroke="#EFEAF5" stroke-width="1.59"/>
<path d="M140.103 54.2646C130.457 54.2518 120.823 54.2455 111.206 54.2518C111.145 54.182 111.035 54.1629 110.877 54.1915" stroke="#FBFBFB" stroke-width="1.59"/>
<path d="M160.827 69.3633H111.014C110.982 69.3633 110.953 69.3792 110.933 69.4046C110.92 69.4236 110.901 69.4363 110.875 69.4395" stroke="#FBFBFB" stroke-width="1.59"/>
<path d="M110.874 69.4363C110.836 69.4268 110.81 69.4014 110.801 69.3633" stroke="#E9E3F4" stroke-width="1.59"/>
<path d="M110.799 69.3628C110.87 69.2675 110.901 69.1405 110.901 68.9848C110.863 66.0275 110.863 63.0701 110.901 60.1127C110.908 59.5695 110.659 58.9755 110.764 58.3942C111.013 57.0346 110.879 55.6338 110.831 54.252" stroke="#FBFBFB" stroke-width="1.59"/>
<path d="M110.801 69.3633H60.9258" stroke="#EFEAF5" stroke-width="1.59"/>
<path d="M110.875 69.436V76.8755" stroke="#EFEAF5" stroke-width="1.59"/>
<path d="M110.872 76.876L107.031 76.9554" stroke="#EFEAF5" stroke-width="1.59"/>
<path d="M107.029 76.9547L99.3438 76.9297" stroke="#84ABB9" stroke-width="1.59"/>
<path d="M99.3454 76.9297L91.6602 76.961" stroke="#EFEAF5" stroke-width="1.59"/>
<path d="M91.6598 76.9608L83.9746 76.9326" stroke="#84ABB9" stroke-width="1.59"/>
<path d="M83.9782 76.9326L76.293 76.9545" stroke="#EFEAF5" stroke-width="1.59"/>
<path d="M76.2926 76.9547L68.6074 76.9297" stroke="#84ABB9" stroke-width="1.59"/>
<path d="M68.6071 76.9297L61.0769 76.936C61.0349 76.936 61.0059 76.9551 60.9897 76.9932C60.9768 77.0282 60.9542 77.044 60.9219 77.0472" stroke="#EFEAF5" stroke-width="1.59"/>
<path d="M160.825 76.8726L153.137 76.9647" stroke="#FBFBFB" stroke-width="1.59"/>
<path d="M153.14 76.9646L145.519 76.9233C145.484 76.9233 145.464 76.9392 145.458 76.9742C145.452 77.0059 145.452 77.0282 145.458 77.0472" stroke="#7393AA" stroke-width="1.59"/>
<path d="M145.455 77.0472C145.417 77.0345 145.384 77.0155 145.359 76.99C145.317 76.9456 145.265 76.9233 145.203 76.9233L137.773 76.9615" stroke="#FBFBFB" stroke-width="1.59"/>
<path d="M137.771 76.961L130.086 76.9453" stroke="#7393AA" stroke-width="1.59"/>
<path d="M130.086 76.9453L122.4 76.9766" stroke="#FBFBFB" stroke-width="1.59"/>
<path d="M122.4 76.9805H114.715" stroke="#7393AA" stroke-width="1.59"/>
<path d="M114.715 76.9808L110.871 76.876" stroke="#FBFBFB" stroke-width="1.59"/>
<path d="M160.826 112.186L153.141 112.164" stroke="#FBFBFB" stroke-width="1.59"/>
<path d="M153.141 112.164V76.9648" stroke="#6D8CA8" stroke-width="1.59"/>
<path d="M99.3438 76.9297V112.17" stroke="#749FB9" stroke-width="1.59"/>
<path d="M99.3454 112.17H91.6602" stroke="#EFEAF5" stroke-width="1.59"/>
<path d="M91.6602 112.17V76.9614" stroke="#749FB9" stroke-width="1.59"/>
<path d="M110.87 76.876L110.858 111.971C110.858 111.971 110.845 112.015 110.817 112.098C110.807 112.12 110.807 112.148 110.81 112.177" stroke="#FBFBFB" stroke-width="1.59"/>
<path d="M110.811 112.18H107.031" stroke="#EFEAF5" stroke-width="1.59"/>
<path d="M107.029 112.177V76.9551" stroke="#749FB9" stroke-width="1.59"/>
<path d="M114.715 76.9805V112.17" stroke="#6D8CA8" stroke-width="1.59"/>
<path d="M114.715 112.167L110.871 112.198" stroke="#FBFBFB" stroke-width="1.59"/>
<path d="M110.871 112.202C110.906 112.272 110.887 112.266 110.811 112.183" stroke="#E9E3F4" stroke-width="1.59"/>
<path d="M68.6074 76.9297V112.17" stroke="#749FB9" stroke-width="1.59"/>
<path d="M68.6071 112.173L60.9219 112.18" stroke="#EFEAF5" stroke-width="1.59"/>
<path d="M76.293 76.9551V112.18" stroke="#749FB9" stroke-width="1.59"/>
<path d="M76.2894 112.18L68.6074 112.174" stroke="#84ABB9" stroke-width="1.59"/>
<path d="M83.9766 76.9326V112.17" stroke="#749FB9" stroke-width="1.59"/>
<path d="M83.9775 112.17L76.2891 112.18" stroke="#EFEAF5" stroke-width="1.59"/>
<path d="M91.6598 112.17H83.9746" stroke="#84ABB9" stroke-width="1.59"/>
<path d="M107.03 112.177L99.3477 112.17" stroke="#84ABB9" stroke-width="1.59"/>
<path d="M122.4 76.9805V112.161" stroke="#6D8CA8" stroke-width="1.59"/>
<path d="M122.4 112.161L114.715 112.167" stroke="#7393AA" stroke-width="1.59"/>
<path d="M130.086 76.9453V112.177" stroke="#6D8CA8" stroke-width="1.59"/>
<path d="M130.086 112.176L122.4 112.158" stroke="#FBFBFB" stroke-width="1.59"/>
<path d="M137.771 76.9614V112.167" stroke="#6D8CA8" stroke-width="1.59"/>
<path d="M137.771 112.167L130.086 112.176" stroke="#7393AA" stroke-width="1.59"/>
<path d="M145.457 77.0469V112.17" stroke="#6D8CA8" stroke-width="1.59"/>
<path d="M145.457 112.17H137.771" stroke="#FBFBFB" stroke-width="1.59"/>
<path d="M153.142 112.164L145.457 112.17" stroke="#7393AA" stroke-width="1.59"/>
<path d="M110.87 112.202L110.863 119.743" stroke="#EFEAF5" stroke-width="1.59"/>
<path d="M110.864 119.743L107.02 119.749" stroke="#84ABB9" stroke-width="1.59"/>
<path d="M91.6603 119.747H83.9492" stroke="#84ABB9" stroke-width="1.59"/>
<path d="M137.783 119.743H130.072" stroke="#7393AA" stroke-width="1.59"/>
<path d="M114.713 119.743H110.875" stroke="#7393AA" stroke-width="1.59"/>
<path d="M110.877 119.747C110.877 119.747 110.87 119.747 110.867 119.747" stroke="#749FB9" stroke-width="1.59"/>
<path d="M78.8875 138.406C78.8229 135.734 77.9216 133.38 76.1836 131.338" stroke="#3465B0" stroke-width="1.59"/>
<path d="M110.876 119.747L110.857 127.297" stroke="#08546E" stroke-width="1.59"/>
<path d="M110.859 127.297C110.869 127.319 110.875 127.338 110.884 127.359" stroke="#3465B0" stroke-width="1.59"/>
<path d="M110.884 127.361C109.611 127.323 108.325 127.516 107.033 127.945" stroke="#3A85BE" stroke-width="1.59"/>
<path d="M114.711 127.897C113.506 127.478 112.224 127.278 110.857 127.294" stroke="#3359A1" stroke-width="1.59"/>
<path d="M145.611 131.344C143.909 133.38 143.004 135.734 142.895 138.405" stroke="#3979AF" stroke-width="1.59"/>
<path d="M67.3383 127.31L67.332 149.971" stroke="#6589F1" stroke-width="1.59"/>
<path d="M110.891 149.968L110.885 127.357" stroke="#6589F1" stroke-width="1.59"/>
<path d="M154.43 127.3V149.968" stroke="#6589F1" stroke-width="1.59"/>
<path d="M110.569 21H110.995C110.801 22.4485 110.837 23.9415 111.105 25.4789C111.208 26.0761 111.095 26.6384 111.134 27.2515C111.14 27.3372 111.121 27.4166 111.079 27.4929C110.785 28.0107 110.937 28.5221 110.824 29.0843L107.044 29.3035C107.012 26.0761 106.114 21.7528 110.572 21H110.569Z" fill="#DFDEF5"/>
<path d="M111 21H111.588C115.671 22.0864 114.725 26.2 114.712 29.2495C113.523 29.0526 112.315 28.989 111.081 29.0621C111.035 29.0621 110.997 29.0748 110.964 29.1002C110.916 29.132 110.887 29.1606 110.871 29.186C110.79 29.1701 110.774 29.1383 110.822 29.0843C110.935 28.5189 110.783 28.0107 111.077 27.4929C111.119 27.4166 111.139 27.3372 111.132 27.2515C111.094 26.6384 111.207 26.0761 111.103 25.4789C110.835 23.9415 110.8 22.4485 110.993 21H111Z" fill="#D2D0F2"/>
<path d="M110.825 29.0879C110.777 29.1387 110.793 29.1737 110.874 29.1895L110.88 54.1922C110.867 54.2303 110.851 54.2526 110.838 54.2558L81.6641 54.2621C83.5991 41.1429 93.6845 31.1939 107.049 29.3102L110.828 29.0911L110.825 29.0879Z" fill="#FBFBFB"/>
<path d="M114.711 29.2495C128.04 31.2508 138.299 41.06 140.105 54.2617C130.459 54.249 120.826 54.2427 111.209 54.249C111.148 54.1791 111.038 54.1601 110.88 54.1887L110.873 29.186C110.886 29.1606 110.918 29.132 110.967 29.1002C110.999 29.078 111.038 29.0653 111.083 29.0621C112.314 28.989 113.525 29.0494 114.714 29.2495H114.711Z" fill="#DFDEF5"/>
<path d="M110.876 54.192C111.037 54.1634 111.147 54.1825 111.205 54.2523C120.822 54.246 130.452 54.2523 140.102 54.265C145.535 54.2523 150.978 54.246 156.438 54.2523C159.588 54.2523 160.828 55.8311 160.825 58.8075C160.822 62.2795 160.822 65.7959 160.825 69.3632H111.011C110.979 69.3632 110.95 69.3791 110.931 69.4045C110.918 69.4236 110.898 69.4363 110.872 69.4395C110.834 69.4299 110.808 69.4045 110.798 69.3664C110.869 69.2711 110.902 69.144 110.902 68.9884C110.863 66.031 110.863 63.0736 110.902 60.1163C110.908 59.5731 110.656 58.9791 110.763 58.3977C111.015 57.0382 110.879 55.6373 110.83 54.2555C110.847 54.2523 110.86 54.2301 110.872 54.192H110.876Z" fill="#D2D0F2"/>
<path d="M81.66 54.2585L110.834 54.2521C110.879 55.6339 111.015 57.0348 110.766 58.3943C110.66 58.9725 110.912 59.5697 110.905 60.1129C110.863 63.0702 110.863 66.0276 110.905 68.985C110.905 69.1406 110.873 69.2677 110.802 69.363H60.9238C60.9238 65.9609 60.9238 62.5969 60.9238 59.2711C60.9238 55.9452 62.0383 54.2585 65.6306 54.2521C70.935 54.2426 76.2781 54.2458 81.66 54.2521V54.2585Z" fill="#DFDEF5"/>
<path d="M60.9235 69.3634H110.798C110.808 69.4016 110.834 69.427 110.873 69.4365V76.876L107.032 76.9554L99.3464 76.93L91.6612 76.9618L83.976 76.9332L76.2907 76.9554L68.6055 76.93L61.0754 76.9364C61.0334 76.9364 61.0043 76.9554 60.9881 76.9935C60.9752 77.0285 60.9526 77.0444 60.9203 77.0475C60.9138 77.0253 60.9041 77.0031 60.888 76.984C60.846 76.9332 60.7943 76.9078 60.7297 76.9141C54.2656 77.3588 54.3528 69.211 60.061 69.3634C60.355 69.373 60.6425 69.373 60.9203 69.3634H60.9235Z" fill="#FBFBFB"/>
<path d="M160.824 69.3628C161.221 69.3691 161.619 69.3691 162.023 69.3628C167.485 69.2897 167.375 77.7616 160.827 76.8753L153.139 76.9674L145.518 76.9262C145.483 76.9262 145.463 76.942 145.457 76.977C145.45 77.0087 145.45 77.031 145.457 77.05C145.418 77.0373 145.386 77.0183 145.36 76.9929C145.318 76.9484 145.266 76.9262 145.205 76.9262L137.775 76.9643L130.09 76.9484L122.404 76.9802H114.719L110.875 76.8753V69.4358C110.904 69.4295 110.923 69.42 110.936 69.4009C110.959 69.3755 110.985 69.3628 111.017 69.3628H160.827H160.824Z" fill="#DFDEF5"/>
<path d="M160.825 76.8726V112.186L153.137 112.164V76.9647L160.825 76.8726Z" fill="#D2D0F2"/>
<path d="M99.3434 76.9297V112.17H91.6582V76.9615L99.3434 76.9297Z" fill="#DFDEF5"/>
<path d="M110.87 76.8757L110.857 111.97C110.857 111.97 110.844 112.015 110.815 112.097C110.806 112.12 110.806 112.148 110.809 112.177H107.029V76.952L110.87 76.8726V76.8757Z" fill="#DFDEF5"/>
<path d="M110.869 76.876L114.714 76.9808V112.171L110.869 112.202C110.905 112.272 110.886 112.266 110.808 112.183C110.802 112.152 110.805 112.126 110.815 112.104C110.844 112.021 110.857 111.977 110.857 111.977L110.869 76.8823V76.876Z" fill="#D2D0F2"/>
<path d="M68.6071 76.9299V112.171L60.9219 112.177V77.0443C60.9542 77.0443 60.9736 77.0252 60.9897 76.9903C61.0059 76.9522 61.0349 76.9331 61.0769 76.9331L68.6071 76.9268V76.9299Z" fill="#DFDEF5"/>
<path d="M68.6055 76.9297L76.2907 76.9551V112.18L68.6055 112.174V76.9329V76.9297Z" fill="#063779"/>
<path d="M83.9775 76.9326V112.17L76.2891 112.18V76.9549L83.9775 76.9326Z" fill="#DFDEF5"/>
<path d="M83.9766 76.9326L91.6618 76.9612V112.17H83.9766V76.9326Z" fill="#063779"/>
<path d="M99.3438 76.9297L107.029 76.9551V112.177L99.3438 112.17V76.9297Z" fill="#063779"/>
<path d="M122.4 76.9807V112.161L114.715 112.167V76.9775H122.4V76.9807Z" fill="#063779"/>
<path d="M130.084 76.9453V112.177L122.398 112.157V76.9771L130.084 76.9453Z" fill="#D2D0F2"/>
<path d="M130.086 76.9453L137.771 76.9612V112.167L130.086 112.177V76.9453Z" fill="#063779"/>
<path d="M145.455 77.0472V112.17H137.77V76.9615L145.2 76.9233C145.261 76.9233 145.313 76.9456 145.355 76.99C145.38 77.0155 145.416 77.0377 145.452 77.0472H145.455Z" fill="#D2D0F2"/>
<path d="M153.14 76.9646V112.164L145.455 112.17V77.0472C145.448 77.0282 145.452 77.0059 145.455 76.9742C145.461 76.9392 145.481 76.9233 145.516 76.9233L153.137 76.9646H153.14Z" fill="#063779"/>
<path d="M60.9213 112.177L68.6065 112.17L76.2885 112.177L83.977 112.167H99.3474L107.029 112.173H110.809C110.887 112.259 110.906 112.265 110.87 112.196L110.864 119.737L107.02 119.743L91.659 119.737H83.9479C74.0498 119.737 64.1744 119.734 54.3215 119.737C53.1973 119.737 52.225 119.206 51.4012 118.145C49.8603 116.157 50.8973 113.26 53.2361 112.415C53.6722 112.256 54.3248 112.18 55.1905 112.18C57.1062 112.183 59.0154 112.18 60.9181 112.173L60.9213 112.177Z" fill="#FBFBFB"/>
<path d="M114.715 112.167L122.4 112.161L130.085 112.18L137.77 112.171H145.456L153.141 112.164L160.826 112.187C162.742 112.193 164.661 112.19 166.589 112.18C167.587 112.174 168.34 112.279 168.847 112.491C171.945 113.791 171.755 118.422 168.602 119.518C168.162 119.671 167.452 119.744 166.466 119.744C156.895 119.74 147.336 119.74 137.783 119.744H110.877C110.877 119.744 110.87 119.744 110.867 119.744L110.874 112.202L114.718 112.171L114.715 112.167Z" fill="#DFDEF5"/>
<path d="M91.66 119.747C91.66 123.041 91.66 126.332 91.66 129.613C91.66 132.297 91.3725 133.774 88.7881 134.743C85.5254 135.966 82.2238 137.189 78.8836 138.406C78.819 135.734 77.9177 133.38 76.1797 131.338L83.8132 128.514C83.9037 128.479 83.9489 128.415 83.9489 128.323V119.75H91.6567L91.66 119.747Z" fill="#F5AF22"/>
<path d="M110.863 119.743C110.863 119.743 110.87 119.743 110.873 119.743L110.853 127.294C110.863 127.316 110.87 127.335 110.879 127.358C109.606 127.32 108.321 127.513 107.029 127.942L107.016 119.747L110.86 119.74L110.863 119.743Z" fill="#F5AF22"/>
<path d="M110.876 119.747H114.713V127.901C113.508 127.482 112.226 127.281 110.859 127.297L110.879 119.747H110.876Z" fill="#F5AF22"/>
<path d="M130.07 119.743H137.781L137.788 128.314C137.788 128.409 137.833 128.472 137.924 128.504L145.609 131.344C143.906 133.38 143.002 135.734 142.892 138.405C139.484 137.154 136.092 135.899 132.723 134.638C130.439 133.784 130.07 132.221 130.08 129.845C130.093 126.487 130.09 123.12 130.074 119.743H130.07Z" fill="#F5AF22"/>
<path d="M67.3358 127.31L67.3293 149.971H66.9126C62.545 149.58 59.3598 147.678 57.3537 144.26C52.844 136.569 58.6104 127.421 67.3326 127.31H67.3358Z" fill="#F5AF22"/>
<path d="M67.3372 127.31C70.7421 127.183 74.021 128.86 76.1822 131.338C77.9201 133.38 78.8182 135.737 78.886 138.406C78.9636 144.603 74.441 149.155 68.3419 149.972H67.334L67.3404 127.31H67.3372Z" fill="#E6A41E"/>
<path d="M110.857 127.297C112.224 127.281 113.51 127.482 114.711 127.901C126.399 132.294 124.206 148.717 111.759 149.972H110.89L110.883 127.361C110.874 127.342 110.867 127.319 110.857 127.297Z" fill="#E6A41E"/>
<path d="M154.43 127.3V149.968H153.958C147.497 149.507 143.026 144.781 142.891 138.402C143 135.731 143.908 133.377 145.607 131.341C147.908 128.742 150.847 127.392 154.427 127.297L154.43 127.3Z" fill="#F5AF22"/>
<path d="M154.43 127.3C159.014 127.122 163.242 130.169 165.013 134.079C166.524 137.418 166.224 141.265 164.331 144.416C162.435 147.576 159.469 149.428 155.441 149.968H154.433V127.3H154.43Z" fill="#E6A41E"/>
<path d="M110.884 127.361L110.89 149.971H110.464C105.347 149.476 101.9 147.024 100.123 142.624C97.684 136.582 101.069 130.232 107.033 127.945C108.325 127.516 109.608 127.323 110.884 127.361Z" fill="#F5AF22"/>
</svg>
