<svg width="17" height="16" viewBox="0 0 17 16" fill="none" xmlns="http://www.w3.org/2000/svg">
<path d="M11.5943 8.24432H5.59114C5.50514 8.24432 5.43553 8.31371 5.43962 8.39941C5.456 9.1014 5.50514 9.77074 5.57885 10.4033C5.59114 10.4931 5.67713 10.5544 5.76722 10.5339C6.68448 10.3013 7.63041 10.183 8.59682 10.183C9.56322 10.183 10.5091 10.3013 11.4264 10.5339C11.5165 10.5584 11.6025 10.4931 11.6148 10.4033C11.6885 9.77074 11.7335 9.09732 11.754 8.39941C11.754 8.31371 11.6885 8.24432 11.6025 8.24432H11.5943Z" fill="#053779"/>
<path d="M11.6107 5.11382C11.5984 5.02403 11.5124 4.96281 11.4223 4.98322C10.5051 5.21585 9.55914 5.33421 8.59274 5.33421C7.62634 5.33421 6.68041 5.21585 5.76314 4.98322C5.67305 4.95873 5.58706 5.02403 5.57477 5.11382C5.50107 5.74642 5.45602 6.41984 5.43555 7.11775C5.43555 7.20345 5.50107 7.27284 5.58706 7.27284H11.5943C11.6803 7.27284 11.7499 7.20345 11.7458 7.11775C11.7295 6.41576 11.6803 5.74642 11.6066 5.11382H11.6107Z" fill="#053779"/>
<path d="M11.4225 3.83644C11.1482 2.33452 10.7305 1.10196 10.2514 0.228554C10.2309 0.187741 10.1941 0.163253 10.149 0.15509C9.64125 0.0530572 9.12528 0 8.59704 0C8.06879 0 7.54874 0.0530572 7.04506 0.15509C7.00002 0.163253 6.96316 0.191822 6.94269 0.228554C6.45949 1.09788 6.0418 2.33044 5.77154 3.83644C5.75925 3.91399 5.8043 3.98745 5.8821 4.00786C6.75023 4.24049 7.6593 4.36702 8.60113 4.36702C9.54297 4.36702 10.452 4.24458 11.3202 4.00786C11.3939 3.98745 11.443 3.91399 11.4307 3.83644H11.4225Z" fill="#053779"/>
<path d="M11.8315 0.697912C11.7087 0.640773 11.5777 0.763213 11.6268 0.889734C11.6268 0.889734 11.6268 0.893815 11.6268 0.897897C11.9216 1.66519 12.1632 2.53451 12.3434 3.47729C12.3598 3.57116 12.4622 3.62422 12.5523 3.58749C13.1501 3.34261 13.7234 3.04467 14.2598 2.69776C14.3376 2.6447 14.354 2.53451 14.2885 2.46512C14.2271 2.39982 14.1657 2.33452 14.1001 2.26922C13.4327 1.60397 12.6628 1.07339 11.8315 0.69383V0.697912Z" fill="#053779"/>
<path d="M12.8716 7.27696H16.2008C16.2909 7.27696 16.3605 7.19942 16.3523 7.11371C16.2458 5.81177 15.8159 4.57512 15.1033 3.50174C15.0583 3.43235 14.96 3.41195 14.8904 3.45684C14.3089 3.84049 13.6947 4.16699 13.0436 4.44044C12.9126 4.49758 12.7774 4.55064 12.6423 4.59961C12.5768 4.6241 12.5358 4.6894 12.544 4.75878C12.6382 5.51791 12.6996 6.31377 12.7201 7.12595C12.7201 7.20758 12.7897 7.27288 12.8716 7.27288V7.27696Z" fill="#053779"/>
<path d="M5.763 11.6848C6.03736 13.1867 6.45504 14.4193 6.93415 15.2927C6.95463 15.3335 6.99148 15.358 7.03652 15.3662C7.5443 15.4682 8.06026 15.5213 8.5885 15.5213C9.11675 15.5213 9.6368 15.4682 10.1405 15.3662C10.1855 15.358 10.2224 15.3294 10.2429 15.2927C10.7261 14.4234 11.1437 13.1908 11.414 11.6848C11.4263 11.6073 11.3812 11.5338 11.3034 11.5134C10.4353 11.2808 9.52624 11.1542 8.58441 11.1542C7.64257 11.1542 6.7335 11.2767 5.86537 11.5134C5.79167 11.5338 5.74253 11.6073 5.75481 11.6848H5.763Z" fill="#053779"/>
<path d="M4.14139 11.0807C4.27243 11.0235 4.40756 10.9705 4.54269 10.9215C4.60821 10.897 4.64916 10.8317 4.64097 10.7623C4.54679 10.0032 4.48536 9.20734 4.46489 8.39516C4.46489 8.31353 4.39528 8.24823 4.31338 8.24823H0.984199C0.89411 8.24823 0.824497 8.32578 0.832686 8.41148C0.939155 9.71343 1.36912 10.9501 2.08164 12.0235C2.12668 12.0928 2.22496 12.1132 2.29458 12.0683C2.87606 11.6847 3.4903 11.3582 4.14139 11.0847V11.0807Z" fill="#053779"/>
<path d="M14.2598 12.8236C13.7234 12.4767 13.1501 12.1787 12.5523 11.9338C12.4622 11.8971 12.3639 11.9502 12.3434 12.044C12.1632 12.9868 11.9216 13.8562 11.6268 14.6234C11.6268 14.6234 11.6268 14.6275 11.6268 14.6316C11.5777 14.7581 11.7087 14.8806 11.8315 14.8234C12.6669 14.4439 13.4327 13.9133 14.1001 13.248C14.1657 13.1827 14.2271 13.1174 14.2885 13.0521C14.354 12.9827 14.3376 12.8726 14.2598 12.8195V12.8236Z" fill="#053779"/>
<path d="M12.7201 8.39533C12.6996 9.20752 12.6423 10.0034 12.544 10.7625C12.5358 10.8319 12.5768 10.8972 12.6423 10.9217C12.7774 10.9706 12.9085 11.0278 13.0436 11.0808C13.6906 11.3543 14.3089 11.6849 14.8904 12.0644C14.96 12.1093 15.0542 12.093 15.1033 12.0195C15.8159 10.9421 16.2458 9.70544 16.3523 8.40758C16.3605 8.31779 16.2909 8.24432 16.2008 8.24432H12.8716C12.7897 8.24432 12.7201 8.30962 12.7201 8.39125V8.39533Z" fill="#053779"/>
<path d="M2.92486 2.70179C3.4613 3.0487 4.03459 3.34664 4.63245 3.59152C4.72254 3.62825 4.82082 3.57519 4.84129 3.48132C5.02147 2.53854 5.26307 1.66921 5.5579 0.901925C5.5579 0.901925 5.5579 0.897844 5.5579 0.893762C5.60704 0.767241 5.47601 0.644802 5.35316 0.70194C4.51779 1.0815 3.75204 1.61207 3.08457 2.27733C3.01905 2.34263 2.95762 2.40793 2.8962 2.47323C2.83068 2.54262 2.84706 2.65281 2.92486 2.70587V2.70179Z" fill="#053779"/>
<path d="M4.46079 7.27685C4.47717 6.41161 4.5386 5.56677 4.64097 4.76275C4.64916 4.69337 4.60821 4.62807 4.54269 4.60358C4.40756 4.5546 4.27652 4.49747 4.14139 4.44441C3.49439 4.17096 2.87606 3.84037 2.29458 3.46081C2.22496 3.41592 2.13078 3.43224 2.08164 3.5057C1.36912 4.57501 0.939155 5.81165 0.832686 7.10951C0.824497 7.1993 0.89411 7.27277 0.984199 7.27277H4.46079V7.27685Z" fill="#053779"/>
<path d="M5.35804 14.8234C5.48089 14.8806 5.61193 14.7581 5.56279 14.6316C5.56279 14.6316 5.56279 14.6275 5.56279 14.6234C5.26795 13.8562 5.02635 12.9868 4.84617 12.044C4.82979 11.9502 4.72742 11.8971 4.63733 11.9338C4.03947 12.1787 3.46618 12.4767 2.92975 12.8236C2.85194 12.8766 2.83556 12.9868 2.90108 13.0562C2.96251 13.1215 3.02393 13.1868 3.08945 13.2521C3.75692 13.9174 4.52677 14.4479 5.35804 14.8275V14.8234Z" fill="#053779"/>
</svg>
