<svg width="26" height="36" viewBox="0 0 26 36" fill="none" xmlns="http://www.w3.org/2000/svg">
<path d="M13.1743 0C9.84566 0.00435319 6.6545 1.47213 4.3008 4.08135C1.94711 6.69058 0.623081 10.2282 0.619154 13.9182C0.615167 16.9337 1.5037 19.8673 3.14844 22.2691C3.14844 22.2691 3.49086 22.7689 3.54678 22.841L13.1743 35.4281L22.8064 22.8347C22.8566 22.7676 23.2001 22.2691 23.2001 22.2691L23.2013 22.2653C24.8452 19.8646 25.7333 16.9323 25.7294 13.9182C25.7255 10.2282 24.4015 6.69058 22.0478 4.08135C19.6941 1.47213 16.5029 0.00435319 13.1743 0ZM13.1743 18.9794C12.2713 18.9794 11.3886 18.6825 10.6378 18.1264C9.88704 17.5703 9.30186 16.7798 8.95631 15.855C8.61076 14.9302 8.52035 13.9126 8.69651 12.9308C8.87267 11.949 9.30749 11.0472 9.94599 10.3394C10.5845 9.6316 11.398 9.14957 12.2836 8.95428C13.1692 8.759 14.0872 8.85922 14.9214 9.24229C15.7557 9.62536 16.4687 10.2741 16.9704 11.1064C17.472 11.9387 17.7398 12.9172 17.7398 13.9182C17.7383 15.26 17.2568 16.5463 16.4009 17.4951C15.545 18.4439 14.3847 18.9777 13.1743 18.9794Z" fill="#FBFBFB"/>
</svg>
