<svg width="33" height="33" viewBox="0 0 33 33" fill="none" xmlns="http://www.w3.org/2000/svg">
<path d="M15.8227 5.58272L15.8164 5.58908L15.8103 5.59566C15.4377 5.99915 15.2353 6.53175 15.2448 7.08139C15.2542 7.63104 15.4746 8.15636 15.861 8.54672L15.8619 8.54765C16.2494 8.93712 16.7724 9.16073 17.3212 9.17028C17.87 9.17984 18.4004 8.97456 18.8011 8.59873L18.8076 8.59259L18.8139 8.58623L21.4988 5.88041C22.2194 5.19882 23.1739 4.82662 24.1607 4.84143C25.1499 4.85628 26.0952 5.25887 26.7959 5.96503C27.4967 6.67132 27.8977 7.62575 27.9124 8.6261C27.9272 9.62404 27.5565 10.5879 26.8799 11.3144L21.5047 16.7314L21.5041 16.732C21.1509 17.0891 20.7314 17.3722 20.2699 17.5653C19.8083 17.7584 19.3136 17.8577 18.8141 17.8577C18.3146 17.8577 17.8199 17.7584 17.3584 17.5653C16.8968 17.3722 16.4774 17.0891 16.1242 16.732L16.1176 16.7253L16.1108 16.7189C15.7101 16.3431 15.1797 16.1378 14.6309 16.1474C14.082 16.1569 13.5591 16.3806 13.1716 16.77L13.1707 16.771C12.7843 17.1613 12.5639 17.6866 12.5544 18.2363C12.545 18.7859 12.7473 19.3185 13.12 19.722L13.1261 19.7286L13.1324 19.7349C13.8781 20.4866 14.7637 21.083 15.7386 21.49C16.7136 21.897 17.7586 22.1066 18.8141 22.1066C19.8696 22.1066 20.9147 21.897 21.8897 21.49C22.8646 21.083 23.7501 20.4866 24.4959 19.735C24.4959 19.735 24.4959 19.7349 24.4959 19.7349L29.8765 14.3124C30.6223 13.5608 31.2137 12.6688 31.6171 11.6873C32.0205 10.7059 32.2281 9.65405 32.2281 8.59194C32.2281 7.52983 32.0205 6.47802 31.6171 5.49655C31.2137 4.51507 30.6223 3.62303 29.8765 2.87145C29.1308 2.11986 28.2452 1.52346 27.2703 1.11649C26.2953 0.709517 25.2503 0.5 24.1948 0.5C23.1393 0.5 22.0942 0.709517 21.1193 1.11649C20.1444 1.52346 19.2588 2.11986 18.513 2.87145L15.8227 5.58272ZM6.43901 26.4926L6.43791 26.4915C6.08359 26.1355 5.80226 25.7123 5.61023 25.2462C5.41819 24.78 5.3193 24.28 5.3193 23.775C5.3193 23.27 5.41819 22.7701 5.61023 22.3039C5.80226 21.8377 6.08359 21.4146 6.43791 21.0586L6.43846 21.0581L11.8191 15.6355L11.8197 15.635C12.1729 15.2779 12.5923 14.9948 13.0539 14.8017C13.5154 14.6086 14.0101 14.5093 14.5096 14.5093C15.0091 14.5093 15.5038 14.6086 15.9654 14.8017C16.4269 14.9948 16.8464 15.2779 17.1996 15.635L17.2062 15.6416L17.213 15.648C17.6137 16.0239 18.1441 16.2291 18.6929 16.2196C19.2417 16.21 19.7647 15.9864 20.1522 15.5969L20.1531 15.596C20.5394 15.2057 20.7599 14.6803 20.7693 14.1307C20.7787 13.581 20.5764 13.0484 20.2038 12.645L20.1977 12.6384L20.1914 12.632C19.4456 11.8804 18.5601 11.2839 17.5851 10.8769C16.6102 10.4699 15.5651 10.2604 14.5096 10.2604C13.4541 10.2604 12.409 10.4699 11.4341 10.8769C10.4592 11.2839 9.57362 11.8804 8.82787 12.632C8.82786 12.632 8.82786 12.632 8.82785 12.632L3.44723 18.0545C1.94113 19.5724 1.0957 21.6302 1.0957 23.775C1.0957 25.9199 1.94113 27.9777 3.44723 29.4955C4.95346 31.0135 6.99717 31.867 9.12898 31.867C10.1845 31.867 11.2295 31.6575 12.2045 31.2505C13.1794 30.8435 14.065 30.2471 14.8107 29.4955L17.5011 26.7843L17.5074 26.7779L17.5135 26.7713C17.8861 26.3678 18.0884 25.8352 18.079 25.2856C18.0696 24.7359 17.8491 24.2106 17.4628 23.8202L17.4619 23.8193C17.0744 23.4299 16.5514 23.2062 16.0026 23.1967C15.4538 23.1871 14.9234 23.3924 14.5227 23.7682L14.5161 23.7744L14.5098 23.7807L11.8195 26.492L11.819 26.4926C11.4657 26.8496 11.0463 27.1327 10.5847 27.3258C10.1232 27.5189 9.62849 27.6183 9.12898 27.6183C8.62948 27.6183 8.13479 27.5189 7.67324 27.3258C7.21169 27.1327 6.79223 26.8496 6.43901 26.4926Z" fill="#FBFBFB" stroke="#FBFBFB"/>
</svg>
