<svg width="111" height="36" viewBox="0 0 111 36" fill="none" xmlns="http://www.w3.org/2000/svg">
<rect x="1" y="1.22314" width="108.048" height="33.7792" rx="16" stroke="#F5AE21" stroke-width="2"/>
<path d="M25.2047 18.1125C25.2047 22.3574 21.8125 25.7811 17.6492 25.7811C13.486 25.7811 10.0938 22.3574 10.0938 18.1125C10.0938 13.8676 13.486 10.4438 17.6492 10.4438C21.8125 10.4438 25.2047 13.8676 25.2047 18.1125Z" stroke="#F5AE21" stroke-width="1.5"/>
<path d="M14.1806 17.7592C13.9854 17.9545 13.9854 18.2711 14.1806 18.4663L17.3626 21.6483C17.5579 21.8436 17.8745 21.8436 18.0697 21.6483C18.265 21.4531 18.265 21.1365 18.0697 20.9412L15.2413 18.1128L18.0697 15.2844C18.265 15.0891 18.265 14.7725 18.0697 14.5773C17.8745 14.382 17.5579 14.382 17.3626 14.5773L14.1806 17.7592ZM21.374 17.6128H14.5342V18.6128H21.374V17.6128Z" fill="#F5AE21"/>
<path d="M47.3977 18.6918C47.3977 18.9865 47.5017 19.2075 47.7097 19.3548C47.9263 19.5022 48.2123 19.5758 48.5677 19.5758H48.7107C48.884 19.5758 49.014 19.6148 49.1007 19.6928C49.1873 19.7622 49.2307 19.8835 49.2307 20.0568C49.2307 20.2822 49.1873 20.4295 49.1007 20.4988C49.0227 20.5595 48.8927 20.5898 48.7107 20.5898H48.4377C48.143 20.5898 47.8787 20.5292 47.6447 20.4078C47.4107 20.2778 47.246 20.0872 47.1507 19.8358C47.0033 20.1218 46.7997 20.3212 46.5397 20.4338C46.2797 20.5378 45.9417 20.5898 45.5257 20.5898H42.6397C42.553 20.5898 42.5097 20.5465 42.5097 20.4598V19.7058C42.5097 19.6192 42.553 19.5758 42.6397 19.5758H45.1227C45.3653 19.5758 45.5603 19.5585 45.7077 19.5238C45.855 19.4805 45.9677 19.4155 46.0457 19.3288C46.1237 19.2335 46.1757 19.1122 46.2017 18.9648C46.2277 18.8175 46.2407 18.6312 46.2407 18.4058V17.3658C46.2407 16.4905 45.7467 16.0528 44.7587 16.0528H43.2507C43.164 16.0528 43.1207 16.0095 43.1207 15.9228V15.1688C43.1207 15.0822 43.164 15.0388 43.2507 15.0388H45.1617C45.8203 15.0388 46.3577 15.2252 46.7737 15.5978C47.1897 15.9705 47.3977 16.5555 47.3977 17.3528V18.6918ZM48.713 20.5898C48.5397 20.5898 48.4097 20.5595 48.323 20.4988C48.2363 20.4382 48.193 20.3168 48.193 20.1348C48.193 19.9182 48.2363 19.7708 48.323 19.6928C48.401 19.6148 48.531 19.5758 48.713 19.5758H49.61C49.8267 19.5758 49.9827 19.5282 50.078 19.4328C50.182 19.3288 50.234 19.1468 50.234 18.8868V15.4028C50.234 15.3162 50.2773 15.2728 50.364 15.2728H51.196C51.2827 15.2728 51.326 15.3162 51.326 15.4028V18.9518C51.326 19.5152 51.209 19.9312 50.975 20.1998C50.741 20.4598 50.351 20.5898 49.805 20.5898H48.713ZM50.858 23.0078C50.7713 23.0078 50.728 22.9645 50.728 22.8778V21.9288C50.728 21.8422 50.7713 21.7988 50.858 21.7988H51.742C51.8287 21.7988 51.872 21.8422 51.872 21.9288V22.8778C51.872 22.9645 51.8287 23.0078 51.742 23.0078H50.858ZM49.272 23.0078C49.1853 23.0078 49.142 22.9645 49.142 22.8778V21.9288C49.142 21.8422 49.1853 21.7988 49.272 21.7988H50.156C50.2427 21.7988 50.286 21.8422 50.286 21.9288V22.8778C50.286 22.9645 50.2427 23.0078 50.156 23.0078H49.272ZM52.4358 23.1768C52.3491 23.1768 52.3058 23.1335 52.3058 23.0468V22.2928C52.3058 22.2062 52.3491 22.1628 52.4358 22.1628H52.7348C53.4368 22.1628 53.7878 21.7945 53.7878 21.0578V15.4028C53.7878 15.3162 53.8311 15.2728 53.9178 15.2728H54.7498C54.8364 15.2728 54.8798 15.3162 54.8798 15.4028V18.6918C54.8798 18.9865 54.9838 19.2075 55.1918 19.3548C55.4084 19.5022 55.6944 19.5758 56.0498 19.5758H56.1928C56.3661 19.5758 56.4961 19.6148 56.5828 19.6928C56.6694 19.7622 56.7128 19.8835 56.7128 20.0568C56.7128 20.2822 56.6694 20.4295 56.5828 20.4988C56.5048 20.5595 56.3748 20.5898 56.1928 20.5898H55.9198C55.4691 20.5898 55.1224 20.4512 54.8798 20.1738V21.0318C54.8798 21.7338 54.7021 22.2668 54.3468 22.6308C53.9914 22.9948 53.4714 23.1768 52.7868 23.1768H52.4358ZM53.8918 13.9858C53.8051 13.9858 53.7618 13.9425 53.7618 13.8558V12.9068C53.7618 12.8202 53.8051 12.7768 53.8918 12.7768H54.7758C54.8624 12.7768 54.9058 12.8202 54.9058 12.9068V13.8558C54.9058 13.9425 54.8624 13.9858 54.7758 13.9858H53.8918ZM60.1165 20.6808C59.7092 20.6808 59.3495 20.6245 59.0375 20.5118C58.7255 20.3905 58.4612 20.2042 58.2445 19.9528C58.0625 20.2302 57.8285 20.4078 57.5425 20.4858C57.2565 20.5552 56.9922 20.5898 56.7495 20.5898H56.1905C55.8439 20.5898 55.6705 20.4165 55.6705 20.0698C55.6705 19.8532 55.7139 19.7188 55.8005 19.6668C55.8785 19.6062 56.0085 19.5758 56.1905 19.5758H56.8405C56.9359 19.5758 57.0312 19.5585 57.1265 19.5238C57.2219 19.4805 57.3085 19.4155 57.3865 19.3288C57.4645 19.2335 57.5252 19.1122 57.5685 18.9648C57.6205 18.8088 57.6465 18.6182 57.6465 18.3928C57.6379 18.3062 57.6335 18.2238 57.6335 18.1458C57.6335 18.0592 57.6335 17.9682 57.6335 17.8728C57.6335 16.8762 57.8545 16.1568 58.2965 15.7148C58.7385 15.2642 59.3452 15.0388 60.1165 15.0388C60.8879 15.0388 61.4945 15.2642 61.9365 15.7148C62.3785 16.1568 62.5995 16.8762 62.5995 17.8728C62.5995 17.9682 62.5952 18.0635 62.5865 18.1588C62.5865 18.2542 62.5822 18.3452 62.5735 18.4318C62.5822 18.8738 62.6689 19.1772 62.8335 19.3418C63.0069 19.4978 63.1889 19.5758 63.3795 19.5758H63.7565C63.9299 19.5758 64.0599 19.6148 64.1465 19.6928C64.2332 19.7622 64.2765 19.8835 64.2765 20.0568C64.2765 20.2822 64.2332 20.4295 64.1465 20.4988C64.0685 20.5595 63.9385 20.5898 63.7565 20.5898H63.4705C63.3492 20.5898 63.2192 20.5855 63.0805 20.5768C62.9419 20.5595 62.8032 20.5292 62.6645 20.4858C62.5345 20.4425 62.4089 20.3818 62.2875 20.3038C62.1662 20.2172 62.0622 20.1045 61.9755 19.9658C61.7589 20.2172 61.4945 20.3992 61.1825 20.5118C60.8705 20.6245 60.5152 20.6808 60.1165 20.6808ZM60.1165 16.0528C59.6312 16.0528 59.2759 16.2132 59.0505 16.5338C58.8339 16.8545 58.7255 17.3008 58.7255 17.8728C58.7255 18.4968 58.8339 18.9518 59.0505 19.2378C59.2759 19.5238 59.6312 19.6668 60.1165 19.6668C60.6019 19.6668 60.9529 19.5238 61.1695 19.2378C61.3949 18.9518 61.5075 18.4968 61.5075 17.8728C61.5075 17.3008 61.3949 16.8545 61.1695 16.5338C60.9529 16.2132 60.6019 16.0528 60.1165 16.0528ZM63.7443 20.5898C63.5709 20.5898 63.4409 20.5595 63.3543 20.4988C63.2676 20.4382 63.2243 20.3168 63.2243 20.1348C63.2243 19.9182 63.2676 19.7708 63.3543 19.6928C63.4323 19.6148 63.5623 19.5758 63.7443 19.5758H64.5633C64.7799 19.5758 64.9359 19.5282 65.0313 19.4328C65.1353 19.3288 65.1873 19.1468 65.1873 18.8868V11.8798C65.1873 11.7932 65.2306 11.7498 65.3173 11.7498H66.1493C66.2359 11.7498 66.2793 11.7932 66.2793 11.8798V18.9518C66.2793 19.5152 66.1623 19.9312 65.9283 20.1998C65.6943 20.4598 65.3043 20.5898 64.7583 20.5898H63.7443ZM69.1867 20.4598C69.1867 20.5465 69.1433 20.5898 69.0567 20.5898H68.2247C68.138 20.5898 68.0947 20.5465 68.0947 20.4598V11.8798C68.0947 11.7932 68.138 11.7498 68.2247 11.7498H69.0567C69.1433 11.7498 69.1867 11.7932 69.1867 11.8798V20.4598ZM74.645 17.6648C74.6796 17.6042 74.7403 17.5998 74.827 17.6518L75.542 18.0418C75.6113 18.0852 75.6243 18.1415 75.581 18.2108C75.425 18.4535 75.2733 18.7525 75.126 19.1078C74.9873 19.4632 74.918 19.8358 74.918 20.2258C74.918 20.5985 74.9786 20.9062 75.1 21.1488C75.23 21.4002 75.3946 21.5952 75.594 21.7338C75.7933 21.8812 76.01 21.9852 76.244 22.0458C76.478 22.1065 76.7076 22.1368 76.933 22.1368C77.4876 22.1368 77.9426 21.9938 78.298 21.7078C78.6533 21.4218 78.831 20.9582 78.831 20.3168V15.3898C78.831 15.3032 78.8743 15.2598 78.961 15.2598H79.793C79.8796 15.2598 79.923 15.3032 79.923 15.3898V15.8448C80.3476 15.6195 80.82 15.4288 81.34 15.2728C81.86 15.1168 82.393 15.0388 82.939 15.0388C83.5456 15.0388 84.0483 15.1212 84.447 15.2858C84.8456 15.4505 85.162 15.6758 85.396 15.9618C85.6386 16.2392 85.8076 16.5642 85.903 16.9368C85.9983 17.3095 86.046 17.7038 86.046 18.1198C86.046 18.5792 86.007 18.9692 85.929 19.2898C85.8596 19.6018 85.747 19.8575 85.591 20.0568C85.435 20.2475 85.2313 20.3862 84.98 20.4728C84.7286 20.5508 84.4296 20.5898 84.083 20.5898H79.91C79.858 21.4045 79.572 22.0372 79.052 22.4878C78.532 22.9472 77.804 23.1768 76.868 23.1768C76.4 23.1768 75.9753 23.1118 75.594 22.9818C75.2213 22.8605 74.9006 22.6785 74.632 22.4358C74.372 22.1932 74.1683 21.8942 74.021 21.5388C73.8736 21.1922 73.8 20.7892 73.8 20.3298C73.8 19.8185 73.8823 19.3288 74.047 18.8608C74.2203 18.3842 74.4196 17.9855 74.645 17.6648ZM82.861 16.0528C82.601 16.0528 82.3366 16.0788 82.068 16.1308C81.7993 16.1742 81.535 16.2348 81.275 16.3128C81.0236 16.3908 80.781 16.4775 80.547 16.5728C80.3216 16.6682 80.1136 16.7635 79.923 16.8588V19.5758H83.706C83.9486 19.5758 84.148 19.5542 84.304 19.5108C84.46 19.4675 84.5813 19.3938 84.668 19.2898C84.7546 19.1772 84.811 19.0255 84.837 18.8348C84.8716 18.6355 84.889 18.3842 84.889 18.0808C84.889 17.7602 84.8543 17.4742 84.785 17.2228C84.7243 16.9715 84.616 16.7592 84.46 16.5858C84.304 16.4125 84.096 16.2825 83.836 16.1958C83.576 16.1005 83.251 16.0528 82.861 16.0528ZM82.458 13.9858C82.3713 13.9858 82.328 13.9425 82.328 13.8558V12.9068C82.328 12.8202 82.3713 12.7768 82.458 12.7768H83.342C83.4286 12.7768 83.472 12.8202 83.472 12.9068V13.8558C83.472 13.9425 83.4286 13.9858 83.342 13.9858H82.458ZM86.8909 23.1768C86.8042 23.1768 86.7609 23.1335 86.7609 23.0468V22.2928C86.7609 22.2062 86.8042 22.1628 86.8909 22.1628H87.1899C87.8919 22.1628 88.2429 21.7945 88.2429 21.0578V15.4028C88.2429 15.3162 88.2862 15.2728 88.3729 15.2728H89.2049C89.2915 15.2728 89.3349 15.3162 89.3349 15.4028V18.6918C89.3349 18.9865 89.4389 19.2075 89.6469 19.3548C89.8635 19.5022 90.1495 19.5758 90.5049 19.5758H90.6479C90.8212 19.5758 90.9512 19.6148 91.0379 19.6928C91.1245 19.7622 91.1679 19.8835 91.1679 20.0568C91.1679 20.2822 91.1245 20.4295 91.0379 20.4988C90.9599 20.5595 90.8299 20.5898 90.6479 20.5898H90.3749C89.9242 20.5898 89.5775 20.4512 89.3349 20.1738V21.0318C89.3349 21.7338 89.1572 22.2668 88.8019 22.6308C88.4465 22.9948 87.9265 23.1768 87.2419 23.1768H86.8909ZM96.6386 19.5758C96.7253 19.5758 96.7686 19.6192 96.7686 19.7058V20.4598C96.7686 20.5465 96.7253 20.5898 96.6386 20.5898H90.6456C90.299 20.5898 90.1256 20.4165 90.1256 20.0698C90.1256 19.8532 90.169 19.7188 90.2556 19.6668C90.3336 19.6062 90.4636 19.5758 90.6456 19.5758H92.1276C91.9283 19.3765 91.7593 19.1252 91.6206 18.8218C91.482 18.5185 91.4126 18.1545 91.4126 17.7298C91.4126 17.4612 91.4516 17.1708 91.5296 16.8588C91.6076 16.5382 91.7506 16.2435 91.9586 15.9748C92.1666 15.7062 92.4483 15.4852 92.8036 15.3118C93.1676 15.1298 93.6313 15.0388 94.1946 15.0388C94.706 15.0388 95.148 15.1342 95.5206 15.3248C95.8933 15.5068 96.1923 15.7625 96.4176 16.0918C96.461 16.1612 96.448 16.2218 96.3786 16.2738L95.8066 16.7418C95.7373 16.7938 95.6766 16.7895 95.6246 16.7288C95.2346 16.2782 94.745 16.0528 94.1556 16.0528C93.6183 16.0528 93.2196 16.2132 92.9596 16.5338C92.6996 16.8458 92.5696 17.2402 92.5696 17.7168C92.5696 18.0375 92.6216 18.3105 92.7256 18.5358C92.8296 18.7612 92.9466 18.9475 93.0766 19.0948C93.2153 19.2422 93.354 19.3548 93.4926 19.4328C93.6313 19.5022 93.7396 19.5498 93.8176 19.5758H96.6386Z" fill="#F5AE21"/>
</svg>
