<svg width="31" height="29" viewBox="0 0 31 29" fill="none" xmlns="http://www.w3.org/2000/svg">
<path d="M30.7496 21.7463C30.4809 23.6967 29.4783 25.4871 27.929 26.7829C26.3797 28.0787 24.3896 28.7914 22.3304 28.7879C10.3677 28.7879 0.634779 19.4893 0.634779 8.0604C0.631088 6.09314 1.37708 4.19187 2.73343 2.71169C4.08978 1.23151 5.96373 0.273638 8.00528 0.0169816C8.52153 -0.0432419 9.04433 0.057662 9.49563 0.304631C9.94693 0.5516 10.3025 0.931387 10.5093 1.3873L13.6914 8.17411V8.19138C13.8497 8.54037 13.9151 8.92139 13.8817 9.30041C13.8483 9.67943 13.7172 10.0447 13.5 10.3635C13.4729 10.4023 13.4443 10.4383 13.4141 10.4743L10.2773 14.0267C11.4058 16.2175 13.8043 18.4889 16.1276 19.5699L19.7948 16.5889C19.8308 16.56 19.8685 16.5331 19.9078 16.5083C20.2412 16.2958 20.6248 16.1661 21.0238 16.131C21.4229 16.0958 21.8249 16.1562 22.1933 16.3068L22.2129 16.3154L29.3107 19.354C29.7888 19.5509 30.1873 19.8903 30.4466 20.3215C30.706 20.7527 30.8123 21.2526 30.7496 21.7463Z" fill="#FBFBFB"/>
</svg>
