<svg width="18" height="15" viewBox="0 0 18 15" fill="none" xmlns="http://www.w3.org/2000/svg">
<path d="M7.95424 6.34976L8.00104 0.59401C8.00233 0.520327 8.03601 0.44991 8.09508 0.39738C8.15414 0.344849 8.23406 0.314241 8.31824 0.31191L9.73264 0.27551C9.89557 0.269444 9.97704 0.339211 9.97704 0.484811L10.0446 6.23601C10.046 6.36072 10.1036 6.47992 10.2049 6.56768C10.3061 6.65544 10.4429 6.70467 10.5854 6.70466L17.0126 6.71376C17.0545 6.71374 17.0959 6.72109 17.1345 6.73538C17.173 6.74966 17.2079 6.77059 17.237 6.79691C17.2661 6.82323 17.2889 6.85441 17.3039 6.88859C17.319 6.92277 17.326 6.95925 17.3246 6.99586L17.2882 8.11061C17.2813 8.34721 17.1426 8.46551 16.8722 8.46551L10.4294 8.47461C10.3205 8.47461 10.216 8.512 10.139 8.57856C10.0619 8.64511 10.0186 8.73538 10.0186 8.82951L9.99784 14.5489C9.99784 14.7703 9.86957 14.8795 9.61304 14.8765L8.30784 14.8583C8.22551 14.8571 8.14693 14.8279 8.0887 14.777C8.03048 14.7261 7.99718 14.6573 7.99584 14.5853L7.95424 8.93416C7.95287 8.81187 7.89693 8.695 7.79858 8.60895C7.70024 8.52289 7.56743 8.47462 7.42904 8.47461L1.45944 8.47916C1.33857 8.47938 1.21904 8.45699 1.10878 8.41346C0.998524 8.36992 0.900058 8.30625 0.819909 8.22665C0.739761 8.14706 0.679762 8.05336 0.64389 7.95177C0.608018 7.85018 0.597093 7.74303 0.611839 7.63741C0.684639 7.10961 0.911706 6.79566 1.29304 6.69556C1.31731 6.68949 1.69344 6.68798 2.42144 6.69101C4.12704 6.70011 5.83784 6.70314 7.55384 6.70011C7.82077 6.70011 7.95424 6.58333 7.95424 6.34976Z" fill="#F5AF22"/>
</svg>
