<svg width="14" height="15" viewBox="0 0 14 15" fill="none" xmlns="http://www.w3.org/2000/svg">
<path d="M6.57535 0.111303C10.3277 0.903535 12.1983 5.38986 10.2461 8.89823C10.2439 8.90212 10.2433 8.90676 10.2444 8.91113C10.2454 8.91551 10.2481 8.91926 10.2517 8.92156C11.0473 9.41203 11.8099 9.96013 12.5394 10.5658C12.9125 10.8757 13.2368 11.1984 13.4124 11.7208C13.5467 12.1208 13.5578 12.5268 13.4455 12.9389C13.0809 14.2788 11.5904 14.8452 10.5188 14.0302C10.2284 13.8095 9.95883 13.4396 9.73216 13.1169C9.23936 12.4149 8.78631 11.6866 8.37299 10.9322C8.37152 10.9296 8.36957 10.9273 8.36727 10.9254C8.36496 10.9236 8.36234 10.9223 8.35955 10.9215C8.35677 10.9208 8.35387 10.9206 8.35102 10.9211C8.34818 10.9215 8.34544 10.9226 8.34297 10.9241C5.81371 12.5352 2.51243 11.7247 0.911437 9.10997C-0.580705 6.67286 -0.205075 3.49466 1.80521 1.52859C3.08527 0.276688 4.86804 -0.249074 6.57535 0.111303ZM8.97277 5.87644C8.97277 5.39247 8.88335 4.91323 8.70962 4.4661C8.53589 4.01896 8.28125 3.61268 7.96024 3.27046C7.63923 2.92824 7.25814 2.65677 6.83872 2.47156C6.4193 2.28635 5.96976 2.19102 5.51579 2.19102C4.59894 2.19102 3.71964 2.57931 3.07133 3.27046C2.42302 3.96161 2.05881 4.89901 2.05881 5.87644C2.05881 6.85388 2.42302 7.79128 3.07133 8.48243C3.71964 9.17358 4.59894 9.56187 5.51579 9.56187C5.96976 9.56187 6.4193 9.46654 6.83872 9.28133C7.25814 9.09612 7.63923 8.82465 7.96024 8.48243C8.28125 8.14021 8.53589 7.73393 8.70962 7.28679C8.88335 6.83966 8.97277 6.36042 8.97277 5.87644Z" fill="#053779"/>
</svg>
