<svg width="124" height="167" viewBox="0 0 124 167" fill="none" xmlns="http://www.w3.org/2000/svg">
<g clip-path="url(#clip0_716_479)">
<path d="M41.9164 0.334229C41.2928 2.07174 41.6981 3.4451 43.129 4.44738" stroke="#1F3579" stroke-width="1.87"/>
<path d="M43.1282 4.44385C40.7827 5.2311 40.4848 7.69345 43.1871 8.44255" stroke="#284083" stroke-width="1.87"/>
<path d="M43.1904 8.44263C41.9647 10.0692 41.923 11.6055 43.0619 13.0552" stroke="#1F3579" stroke-width="1.87"/>
<path d="M43.0595 13.0552C40.4403 13.1315 37.8626 13.5442 37.0693 10.6449C36.9064 10.0449 36.9653 9.33046 36.6327 8.74089C35.9641 7.56174 35.0217 7.3155 33.6394 7.3155C31.6334 7.3155 29.6274 7.3155 27.618 7.3155C22.8958 7.30163 22.002 9.28191 22.002 13.8147C22.0089 29.2997 22.0089 44.8298 22.002 60.405" stroke="#3269AF" stroke-width="1.87"/>
<path d="M21.9913 60.405L15.1488 54.0757C15.0656 53.9994 15.0241 53.9058 15.0206 53.7948L15.0137 53.5173" stroke="#87717B" stroke-width="1.87"/>
<path d="M15.0137 53.5208L15.0241 46.9487" stroke="#886A6A" stroke-width="1.87"/>
<path d="M15.0263 46.9486L14.9492 33.0347" stroke="#87717B" stroke-width="1.87"/>
<path d="M14.9483 33.0346L14.9414 27.9192" stroke="#4B49A4" stroke-width="1.87"/>
<path d="M90.2676 10.6204L90.3195 38.5211" stroke="#5656B7" stroke-width="1.87"/>
<path d="M90.319 38.5212C90.3052 65.6209 90.2982 92.7379 90.3052 119.872C90.3052 120.573 90.2636 121.454 90.1804 122.515C89.8063 127.37 86.4283 131.206 81.9348 132.409C80.7569 132.725 78.8583 132.881 76.2426 132.877C64.7611 132.86 53.3211 132.857 41.9297 132.867" stroke="#927E8E" stroke-width="1.87"/>
<path d="M41.9333 132.867C39.7159 130.2 40.7033 128.359 42.4044 125.966" stroke="#1F3579" stroke-width="1.87"/>
<path d="M42.4023 125.962C42.4404 125.896 42.5028 125.868 42.5893 125.875" stroke="#3D77C2" stroke-width="1.87"/>
<path d="M42.5918 125.875C54.1772 125.886 65.7523 125.882 77.317 125.875C81.8035 125.875 83.2483 124.526 83.2483 119.921V12.8122C83.2483 8.85164 81.7377 7.39158 77.7535 7.39851C75.9935 7.39851 71.0011 6.96153 69.6603 7.81468C68.1463 8.77881 68.6833 10.0308 68.1047 11.2932C67.5365 12.5382 66.5284 13.1625 65.0732 13.1625C57.7596 13.1659 50.4667 13.1659 43.1912 13.1625" stroke="#4F83C3" stroke-width="1.87"/>
<path d="M43.1938 13.1592C43.1348 13.1003 43.0863 13.0656 43.0586 13.0552" stroke="#3D77C2" stroke-width="1.87"/>
<path d="M43.1882 8.44255C45.17 8.52579 46.1851 7.89806 46.2336 6.56632C46.3133 4.36061 44.4875 4.78372 43.1328 4.44385" stroke="#334D96" stroke-width="1.87"/>
<path d="M63.7417 6.39626C63.7382 5.36624 62.8998 4.5339 61.8743 4.53736L50.9644 4.57551C49.9355 4.57898 49.104 5.41826 49.1074 6.44481V6.55579C49.1109 7.58581 49.9493 8.41815 50.9748 8.41469L61.8847 8.37654C62.9136 8.37307 63.7451 7.53379 63.7417 6.50724V6.39626Z" stroke="#334D96" stroke-width="1.87"/>
<path d="M43.1935 13.1592C41.2256 15.7394 41.2429 18.2087 43.2524 20.5635C43.287 20.6086 43.2801 20.6745 43.235 20.7092C43.2177 20.7231 43.1935 20.7335 43.1692 20.7335C41.1009 20.6849 39.0152 20.6919 36.9157 20.7474C31.7709 20.8826 31.8436 27.9714 37.0889 28.0581C39.133 28.0928 41.1182 28.1101 43.048 28.1066C43.2628 28.1066 43.3321 28.2072 43.2593 28.4084C42.2234 31.2348 42.9925 33.6729 45.5702 35.7191" stroke="#61B7F8" stroke-width="1.87"/>
<path d="M45.5742 35.7224L44.7305 35.7536" stroke="#9CCDFB" stroke-width="1.87"/>
<path d="M44.7294 35.7536C40.1389 35.7363 35.6697 35.7293 31.3251 35.7328C28.9658 35.7328 27.036 36.5443 27.0325 39.1454C27.0256 44.9995 27.0256 50.8571 27.0325 56.7078C27.0395 59.6557 27.9749 61.0741 31.1172 61.0741C35.6212 61.0741 40.1251 61.0741 44.6324 61.0741" stroke="#91C4F9" stroke-width="1.87"/>
<path d="M44.6348 61.0742H45.8605" stroke="#9CCDFB" stroke-width="1.87"/>
<path d="M45.8617 61.0776C44.2922 62.4996 44.2297 64.1191 45.6811 65.9434" stroke="#61B7F8" stroke-width="1.87"/>
<path d="M45.6758 65.9434C40.3058 65.9434 35.0639 65.9434 29.9468 65.9434C29.3925 65.9434 28.703 66.3006 27.875 67.0115" stroke="#91C4F9" stroke-width="1.87"/>
<path d="M27.875 67.015C26.8737 64.3758 23.9774 62.2984 21.9922 60.4014" stroke="#A4B3C3" stroke-width="1.87"/>
<path d="M42.5919 125.876C42.3009 124.034 42.9938 122.747 44.6706 122.009C44.7746 121.967 44.8161 121.887 44.7988 121.78C44.785 121.696 44.7261 121.634 44.6291 121.599" stroke="#61B7F8" stroke-width="1.87"/>
<path d="M44.6289 121.599L44.809 121.474" stroke="#A3D0FA" stroke-width="1.87"/>
<path d="M44.8086 121.478C45.0892 121.454 45.3629 121.572 45.5743 121.572C54.984 121.572 64.3902 121.572 73.793 121.572C77.0705 121.572 78.2207 120.528 78.2207 117.112C78.2138 111.504 78.2138 105.896 78.2207 100.284C78.2207 97.0626 76.7101 96.2268 73.5955 96.2302C64.165 96.2372 54.7207 96.2372 45.2694 96.2302" stroke="#AED9FC" stroke-width="1.87"/>
<path d="M45.2695 96.2336C45.363 96.2058 45.46 96.1781 45.5569 96.1538" stroke="#A3D0FA" stroke-width="1.87"/>
<path d="M45.5623 96.1538C44.4234 94.4267 44.5067 92.8071 45.8053 91.2881" stroke="#61B7F8" stroke-width="1.87"/>
<path d="M45.8023 91.2882C55.3922 91.2848 65.0097 91.2813 74.6516 91.2882C77.4786 91.2882 78.2166 89.5923 78.2166 86.9566C78.2131 81.3418 78.2097 75.7269 78.2166 70.1156C78.2166 67.2683 77.1772 66.096 74.222 66.0648C64.6633 65.9643 55.0942 65.9435 45.5078 66.0024" stroke="#AED9FC" stroke-width="1.87"/>
<path d="M45.5078 65.9954C45.5632 65.978 45.6185 65.9607 45.6773 65.9434" stroke="#A3D0FA" stroke-width="1.87"/>
<path d="M45.8579 61.0778C55.323 61.0743 64.7916 61.0709 74.2706 61.0778C77.2675 61.0778 78.2237 59.6177 78.2202 56.6733C78.2133 51.0966 78.2133 45.5165 78.2202 39.9363C78.2271 36.4474 76.7166 35.7365 73.3768 35.7399C63.9532 35.7504 54.6855 35.7469 45.5703 35.7261" stroke="#AED9FC" stroke-width="1.87"/>
<path d="M43.4924 20.8826L43.4785 27.8847C43.4785 27.9506 43.5339 28.0061 43.5998 28.0061L68.4025 28.0511C70.4535 28.0546 72.1165 26.442 72.1199 24.4478V24.4201C72.1234 22.4259 70.4639 20.8098 68.4129 20.8063L43.6102 20.7612C43.5443 20.7612 43.4889 20.8167 43.4889 20.8826" stroke="#AED9FC" stroke-width="1.87"/>
<path d="M123.391 144.197L114.418 120.718" stroke="#BF829F" stroke-width="1.87"/>
<path d="M114.419 120.722C113.175 117.608 112.721 114.445 113.061 111.237C114.294 99.584 115.676 91.049 112.143 80.8147C111.741 79.6563 110.882 77.7003 109.562 74.9467C106.159 67.8475 103.419 60.9807 103.37 53.0388C103.36 51.3013 103.357 47.2887 103.363 41.001C103.363 39.6485 103.298 38.6913 103.163 38.1295C101.978 33.2082 95.6964 31.6303 92.2319 35.1296C91.3415 36.0313 90.7005 37.1619 90.3125 38.5248" stroke="#BD92B9" stroke-width="1.87"/>
<path d="M14.9473 33.0347L12.1133 30.6348" stroke="#BD92B9" stroke-width="1.87"/>
<path d="M15.0243 46.9486L14.9481 44.6111C14.9447 44.5036 14.9031 44.4134 14.8234 44.3371C12.322 41.9268 9.78941 39.5477 7.22565 37.2033C4.97716 35.1432 4.85936 33.3606 4.46094 30.4856" stroke="#FBB47E" stroke-width="1.87"/>
<path d="M15.0163 53.5206C14.8566 53.7564 14.5823 53.6663 14.1934 53.2432" stroke="#FBB47E" stroke-width="1.87"/>
<path d="M14.1929 53.2434L2.34766 42.2322" stroke="#BF8CA8" stroke-width="1.87"/>
<path d="M114.42 120.722C112.054 134.376 103.662 145.356 90.8263 150.783C83.4053 153.922 75.3641 154.522 66.6992 152.583" stroke="#FBAA75" stroke-width="1.87"/>
<path d="M66.697 152.583C64.8955 151.491 63.281 150.644 61.8536 150.051C53.0398 146.403 45.7365 140.695 39.9473 132.926" stroke="#BD92B9" stroke-width="1.87"/>
<path d="M39.9453 132.926L41.9305 132.864" stroke="#87717B" stroke-width="1.87"/>
<path d="M44.729 35.7537C43.4298 36.6831 42.73 37.6889 42.6364 38.7674C42.5879 39.3466 42.5776 40.231 42.6122 41.4205" stroke="#DEE6FD" stroke-width="1.87"/>
<path d="M42.6097 41.4241C41.0438 41.4241 37.7039 41.0565 36.4359 41.875C35.0951 42.7351 35.161 45.1038 36.6438 45.9014C37.9291 46.595 42.0589 46.217 43.6664 46.2205" stroke="#889ACE" stroke-width="1.87"/>
<path d="M43.6684 46.2205L42.776 46.2968C42.6649 46.3037 42.6094 46.3626 42.6094 46.4736V50.5209" stroke="#DEE6FD" stroke-width="1.87"/>
<path d="M42.6047 50.5208C41.9672 50.5139 40.4983 50.5208 38.1978 50.5486C34.56 50.5936 34.4145 55.4316 38.5061 55.3935C39.8331 55.3796 41.1877 55.3796 42.5631 55.3935" stroke="#C9D2F9" stroke-width="1.87"/>
<path d="M42.5625 55.397C42.5902 57.3634 42.3408 59.4338 44.3121 60.6095C44.3779 60.6477 44.3849 60.6962 44.3363 60.7552C44.3156 60.776 44.3086 60.8072 44.3086 60.8419C44.3086 60.9251 44.3467 60.9702 44.4334 60.9737C44.5512 60.9806 44.617 61.0118 44.6378 61.0708" stroke="#DEE6FD" stroke-width="1.87"/>
<path d="M42.5625 55.397C50.6661 55.3936 58.8043 55.3901 66.9737 55.3866C70.9683 55.3866 70.8297 50.5244 66.6931 50.5209C58.6622 50.5174 50.6314 50.5174 42.6041 50.5209" stroke="#D4DCFB" stroke-width="1.87"/>
<path d="M43.6646 46.2205C45.4592 46.2205 50.9401 46.6575 52.2774 45.8182C53.6147 44.9789 53.6321 42.6935 52.3155 41.8473C51.8825 41.5663 51.2034 41.4276 50.2749 41.4241C47.7181 41.4172 45.1647 41.4172 42.6113 41.4241" stroke="#93A4D0" stroke-width="1.87"/>
<path d="M63.4234 43.6574C63.4234 42.4401 62.436 41.4517 61.2199 41.4517H59.0511C57.8351 41.4517 56.8477 42.4401 56.8477 43.6574V43.9764C56.8477 45.1937 57.8351 46.1821 59.0511 46.1821H61.2199C62.436 46.1821 63.4234 45.1937 63.4234 43.9764V43.6574Z" stroke="#D4DCFB" stroke-width="1.87"/>
<path d="M14.1912 53.2434C12.3827 52.144 10.4634 51.8388 8.42969 52.3347" stroke="#BD92B9" stroke-width="1.87"/>
<path d="M8.43025 52.3347C4.46334 53.5867 2.43658 57.9981 4.25893 61.6569C4.65389 62.4511 5.52349 63.4707 6.86774 64.7193C9.20977 66.8972 11.5553 69.089 13.9112 71.2982" stroke="#BF8CA8" stroke-width="1.87"/>
<path d="M13.915 71.298C11.9991 70.3339 10.149 70.0981 8.36133 70.5975" stroke="#BD92B9" stroke-width="1.87"/>
<path d="M8.36194 70.5977C3.10969 72.4253 2.04608 78.55 6.05456 82.24C8.67722 84.6538 11.3033 87.0884 13.926 89.5438" stroke="#BF8CA8" stroke-width="1.87"/>
<path d="M13.9292 89.5438C11.9856 88.5796 10.1182 88.3473 8.33398 88.8467" stroke="#BD92B9" stroke-width="1.87"/>
<path d="M8.33357 88.8467C4.41863 90.2721 2.43344 94.4684 4.26273 98.1516C4.66461 98.9631 5.60697 100.052 7.0898 101.419C9.79561 103.922 12.4356 106.378 15.0167 108.785" stroke="#BF8CA8" stroke-width="1.87"/>
<path d="M15.0137 108.785C15.0137 112.485 15.0137 116.13 15.0241 119.716C15.0275 121.991 15.173 123.635 15.4571 124.648C16.4965 128.369 19.5141 131.417 23.2143 132.458C24.2363 132.742 25.8716 132.877 28.1201 132.864C32.1459 132.836 36.0885 132.857 39.9446 132.929" stroke="#4B49A4" stroke-width="1.87"/>
<path d="M66.6992 152.583C71.7297 155.826 76.251 160.275 77.2557 166.168" stroke="#BF829F" stroke-width="1.87"/>
<path d="M27.875 67.0151C28.2351 68.392 28.2663 69.6925 27.9685 70.9237" stroke="#E6CBC5" stroke-width="1.87"/>
<path d="M27.9672 70.9237C24.9011 71.5167 23.0753 70.6878 20.7575 68.5411C17.3761 65.4059 13.9947 62.2777 10.6133 59.1495C8.67319 57.353 7.94563 55.0814 8.43067 52.3347" stroke="#FBB47E" stroke-width="1.87"/>
<path d="M27.9705 70.9236L27.0156 73.0807" stroke="#E8C5B4" stroke-width="1.87"/>
<path d="M27.0134 73.0808C25.6761 74.7732 23.975 75.7061 21.9102 75.8796" stroke="#A6ACB2" stroke-width="1.87"/>
<path d="M21.9115 75.8828C20.4807 75.9141 19.1537 75.5811 17.9238 74.884" stroke="#886A6A" stroke-width="1.87"/>
<path d="M17.9225 74.8806L13.9141 71.2981" stroke="#FBB47E" stroke-width="1.87"/>
<path d="M45.5094 65.9954C44.0612 66.311 43.1223 67.1884 42.6858 68.6311C42.5472 69.0924 42.5334 70.0912 42.6442 71.631" stroke="#DEE6FD" stroke-width="1.87"/>
<path d="M42.6444 71.631C41.1512 71.624 38.331 71.3362 37.0214 71.8252C35.0259 72.5708 34.9427 75.4112 36.8794 76.2609C38.1509 76.8192 41.1824 76.5002 42.6132 76.5002" stroke="#889ACE" stroke-width="1.87"/>
<path d="M42.6094 76.5037L42.6336 80.8076" stroke="#DEE6FD" stroke-width="1.87"/>
<path d="M42.6343 80.8076C40.8709 80.8076 37.001 80.2701 35.9027 81.8758C35.0851 83.0792 35.4627 84.7301 36.7862 85.3925C38.0091 86.0028 41.2242 85.6803 42.6759 85.6803" stroke="#C9D2F9" stroke-width="1.87"/>
<path d="M42.6743 85.6838C42.3174 88.1254 42.5842 89.5785 44.6317 91.2848" stroke="#DEE6FD" stroke-width="1.87"/>
<path d="M44.6322 91.2848H29.6238C29.0452 91.2848 28.4112 90.8756 27.7148 90.0571" stroke="#91C4F9" stroke-width="1.87"/>
<path d="M27.7148 90.057L27.9676 89.1553" stroke="#E8C5B4" stroke-width="1.87"/>
<path d="M27.969 89.1553C28.4447 87.234 28.1287 85.3404 27.0176 83.478" stroke="#E6CBC5" stroke-width="1.87"/>
<path d="M27.0176 83.4747V73.0808" stroke="#91C4F9" stroke-width="1.87"/>
<path d="M45.8064 91.2881H44.6328" stroke="#9CCDFB" stroke-width="1.87"/>
<path d="M42.6744 85.6837C50.7918 85.6837 58.8989 85.6803 66.999 85.6768C69.7741 85.6768 71.1148 82.3787 68.558 81.1197C68.1353 80.9117 67.4563 80.8076 66.5243 80.8076H42.6328" stroke="#D4DCFB" stroke-width="1.87"/>
<path d="M42.6094 76.5038C45.2805 76.5038 47.8997 76.5038 50.467 76.4968C53.4188 76.4899 54.5066 72.9178 51.8181 71.8565C51.4405 71.7074 50.803 71.6311 49.9057 71.6311H42.6406" stroke="#93A4D0" stroke-width="1.87"/>
<path d="M63.4202 73.8853C63.4133 72.6576 62.412 71.6657 61.1856 71.6726L59.0756 71.683C57.8492 71.69 56.8583 72.6923 56.8653 73.92V74.2564C56.8722 75.4841 57.8735 76.4759 59.0999 76.469L61.2098 76.4586C62.4363 76.4517 63.4271 75.4494 63.4202 74.2217V73.8853Z" stroke="#D4DCFB" stroke-width="1.87"/>
<path d="M17.9238 74.8806L21.96 78.6539" stroke="#87717B" stroke-width="1.87"/>
<path d="M21.9609 78.6541L27.0192 83.4747" stroke="#A4B3C3" stroke-width="1.87"/>
<path d="M27.9671 89.1554C25.4345 89.6617 23.193 89.0236 21.2459 87.241C17.7744 84.0608 14.3306 80.8493 10.9146 77.6136C9.91682 76.6703 9.25509 75.8379 8.93288 75.1235C8.31966 73.7744 8.12911 72.2658 8.36123 70.5977" stroke="#FBB47E" stroke-width="1.87"/>
<path d="M27.7134 90.0571C26.5701 92.4536 24.6542 93.8096 21.9727 94.1321" stroke="#A6ACB2" stroke-width="1.87"/>
<path d="M21.9732 94.1287C20.5873 94.1876 19.1946 93.8408 17.7949 93.0813" stroke="#886A6A" stroke-width="1.87"/>
<path d="M17.7961 93.0846L13.9297 89.5437" stroke="#FBB47E" stroke-width="1.87"/>
<path d="M21.9596 78.6539L21.9102 75.8794" stroke="#3269AF" stroke-width="1.87"/>
<path d="M17.7949 93.0847L21.9108 96.8857" stroke="#87717B" stroke-width="1.87"/>
<path d="M21.9102 96.8857L27.0065 101.727" stroke="#A4B3C3" stroke-width="1.87"/>
<path d="M27.0078 101.727C28.1259 103.596 28.4419 105.493 27.9557 107.415" stroke="#E6CBC5" stroke-width="1.87"/>
<path d="M27.9566 107.415C25.1399 107.987 23.1859 107.241 21.0379 105.279C17.5838 102.119 14.1539 98.9354 10.7482 95.7239C8.79767 93.8859 7.9939 91.5935 8.33342 88.8433" stroke="#FBB47E" stroke-width="1.87"/>
<path d="M27.9588 107.415L27.0039 109.607" stroke="#E8C5B4" stroke-width="1.87"/>
<path d="M27.0024 109.607C25.6997 111.23 24.0298 112.156 21.9961 112.381" stroke="#A6ACB2" stroke-width="1.87"/>
<path d="M21.9947 112.381C18.939 112.496 17.2137 110.959 15.0137 108.785" stroke="#886A6A" stroke-width="1.87"/>
<path d="M45.5605 96.1538C40.8106 96.1538 36.2478 96.1573 31.872 96.1608C27.3681 96.1608 27.1568 97.7422 27.0078 101.727" stroke="#91C4F9" stroke-width="1.87"/>
<path d="M21.9102 96.8857L21.976 94.1321" stroke="#3269AF" stroke-width="1.87"/>
<path d="M45.2683 96.2336C45.0292 96.4209 44.7694 96.5804 44.4818 96.7088C42.3997 97.6347 42.3685 100.062 42.708 101.925" stroke="#DEE6FD" stroke-width="1.87"/>
<path d="M42.7094 101.925C41.2474 101.914 37.8556 101.581 36.6084 102.261C35.2087 103.028 35.0909 105.337 36.3589 106.229C37.6062 107.106 41.043 106.811 42.5778 106.759" stroke="#889ACE" stroke-width="1.87"/>
<path d="M42.5774 106.759L42.5566 111.081" stroke="#DEE6FD" stroke-width="1.87"/>
<path d="M42.556 111.081C40.9935 111.105 38.059 110.796 36.7736 111.344C35.2111 112.01 35.0379 114.538 36.4237 115.45C37.671 116.272 40.9969 115.988 42.5352 115.964" stroke="#C9D2F9" stroke-width="1.87"/>
<path d="M42.5352 115.96C42.8262 118.339 42.1991 120.136 44.8114 121.474" stroke="#DEE6FD" stroke-width="1.87"/>
<path d="M44.6296 121.599C40.2642 121.631 35.8954 121.624 31.5197 121.582C28.8901 121.558 27.0054 120.833 27.0262 117.913C27.0435 115.173 27.0366 112.405 27.002 109.607" stroke="#91C4F9" stroke-width="1.87"/>
<path d="M42.5352 115.96C50.3893 115.971 58.2503 115.974 66.1183 115.971C67.1958 115.971 67.9338 115.891 68.3356 115.735C70.1268 115.041 70.449 112.482 68.7029 111.466C68.3322 111.251 67.7189 111.14 66.8597 111.129C58.7319 111.018 50.6318 111.001 42.5594 111.081" stroke="#D4DCFB" stroke-width="1.87"/>
<path d="M42.5781 106.759C45.1384 106.704 47.6849 106.693 50.2175 106.725C51.1356 106.735 51.8181 106.603 52.2719 106.329C53.6716 105.48 53.6439 103.017 52.1056 102.223C51.7245 102.029 51.1494 101.928 50.3768 101.928C47.8581 101.921 45.3047 101.921 42.7132 101.928" stroke="#93A4D0" stroke-width="1.87"/>
<path d="M63.4273 104.144C63.4204 102.927 62.4295 101.946 61.2134 101.949L59.0446 101.959C57.8286 101.966 56.8481 102.958 56.8516 104.175V104.501C56.8585 105.719 57.8528 106.7 59.0689 106.697L61.2377 106.686C62.4537 106.679 63.4342 105.688 63.4307 104.47V104.144" stroke="#D4DCFB" stroke-width="1.87"/>
<path d="M21.9961 112.381C22.0031 114.885 22.0031 117.375 21.9961 119.851C21.9892 123.319 22.8935 125.948 26.8708 125.952C32.0121 125.959 37.1882 125.962 42.4058 125.962" stroke="#3269AF" stroke-width="1.87"/>
<path d="M25.0225 0.334229H41.9156C41.292 2.07174 41.6973 3.4451 43.1282 4.44738C40.7827 5.23464 40.4847 7.69698 43.1871 8.44608C41.9641 10.0726 41.9225 11.609 43.0589 13.0586C40.4397 13.1349 37.8621 13.5476 37.0687 10.6483C36.9059 10.0483 36.9648 9.33391 36.6322 8.74434C35.9635 7.56519 35.0212 7.31896 33.6388 7.31896C31.6328 7.31896 29.6269 7.31896 27.6174 7.31896C22.8952 7.30508 22.0014 9.28536 22.0014 13.8182C22.0083 29.3032 22.0083 44.8333 22.0014 60.4084L15.1589 54.0792C15.0758 54.0029 15.0342 53.9092 15.0307 53.7983L15.0238 53.5208L15.0342 46.9488L14.958 33.0348L14.951 27.9194C14.958 22.8629 14.951 17.7822 14.9337 12.6772C14.9095 6.25079 18.5472 1.46829 25.0329 0.334229H25.0225Z" fill="#083B73"/>
<path d="M41.915 0.334229H79.5366C85.6203 1.06599 89.1992 4.49593 90.2628 10.6206L90.3148 38.5213C90.3009 65.621 90.294 92.7379 90.3009 119.872C90.3009 120.573 90.2593 121.454 90.1762 122.515C89.802 127.37 86.4241 131.206 81.9306 132.409C80.7526 132.725 78.854 132.881 76.2383 132.878C64.7568 132.86 53.3169 132.857 41.9254 132.867C39.7081 130.2 40.6955 128.359 42.3966 125.966C42.4347 125.9 42.4971 125.872 42.5837 125.879C54.1691 125.889 65.7442 125.886 77.3089 125.879C81.7954 125.879 83.2402 124.53 83.2402 119.924V12.8124C83.2402 8.85185 81.7296 7.39179 77.7454 7.39872C75.9854 7.39872 70.993 6.96174 69.6522 7.81489C68.1382 8.77902 68.6752 10.031 68.0966 11.2934C67.5284 12.5384 66.5203 13.1627 65.0651 13.1627C57.7515 13.1662 50.4586 13.1662 43.1831 13.1627C43.1242 13.1037 43.0757 13.069 43.048 13.0586C41.9116 11.609 41.9566 10.0726 43.1761 8.44608C45.1579 8.52932 46.173 7.90159 46.2215 6.56985C46.3012 4.36415 44.4753 4.78725 43.1207 4.44738C41.6899 3.4451 41.2845 2.07521 41.9081 0.334229H41.915ZM63.7452 6.39991C63.7417 5.36989 62.9033 4.53755 61.8778 4.54102L50.9679 4.57917C49.9389 4.58264 49.1074 5.42191 49.1109 6.44847V6.55945C49.1144 7.58947 49.9528 8.42181 50.9783 8.41834L61.8882 8.38019C62.9171 8.37672 63.7486 7.53745 63.7452 6.51089V6.39991Z" fill="#0F4E87"/>
<path d="M43.1297 4.44385C44.4878 4.78025 46.3137 4.36061 46.2305 6.56632C46.182 7.90153 45.1669 8.52579 43.1852 8.44255C40.4828 7.69345 40.7808 5.2311 43.1263 4.44385H43.1297Z" fill="#3C58A0"/>
<path d="M61.8718 4.53814L50.9655 4.57625C49.9361 4.57985 49.1045 5.41812 49.1081 6.44858L49.1084 6.55609C49.112 7.58656 49.9494 8.419 50.9789 8.4154L61.8852 8.37729C62.9146 8.37369 63.7462 7.53542 63.7426 6.50496L63.7422 6.39745C63.7386 5.36698 62.9012 4.53454 61.8718 4.53814Z" fill="#3C58A0"/>
<path d="M43.0601 13.0551C43.0913 13.062 43.1363 13.0967 43.1952 13.1591C41.2274 15.7394 41.2447 18.2087 43.2541 20.5635C43.2888 20.6086 43.2818 20.6745 43.2368 20.7092C43.2195 20.723 43.1952 20.7334 43.171 20.7334C41.1026 20.6849 39.017 20.6918 36.9175 20.7473C31.7726 20.8826 31.8454 27.9713 37.0907 28.058C39.1348 28.0927 41.1199 28.1101 43.0497 28.1066C43.2645 28.1066 43.3338 28.2072 43.261 28.4083C42.2251 31.2348 42.9943 33.6729 45.5719 35.719L44.73 35.7503C40.1395 35.7329 35.6702 35.726 31.3257 35.7294C28.9663 35.7294 27.0366 36.541 27.0331 39.142C27.0262 44.9962 27.0262 50.8538 27.0331 56.7044C27.04 59.6523 27.9755 61.0708 31.1178 61.0708C35.6217 61.0708 40.1256 61.0708 44.633 61.0708H45.856C44.29 62.4961 44.2276 64.1157 45.6758 65.94C40.3058 65.94 35.0639 65.94 29.9468 65.94C29.3925 65.94 28.703 66.2972 27.875 67.0081C26.8737 64.3689 23.9774 62.2915 21.9922 60.3945C21.9991 44.8193 22.0026 29.2892 21.9922 13.8042C21.9922 9.26794 22.8895 7.29113 27.6082 7.305C29.6177 7.30847 31.6271 7.31194 33.6296 7.305C35.012 7.305 35.9578 7.55124 36.623 8.73039C36.9556 9.31996 36.9001 10.0344 37.0595 10.6344C37.8529 13.5337 40.4305 13.121 43.0497 13.0447L43.0601 13.0551Z" fill="#EFEFEF"/>
<path d="M42.5928 125.875C42.3018 124.034 42.9947 122.747 44.6715 122.009C44.7755 121.967 44.817 121.887 44.7997 121.78C44.7859 121.696 44.727 121.634 44.6299 121.599L44.8101 121.474C45.0907 121.45 45.3644 121.568 45.5758 121.568C54.9855 121.568 64.3917 121.568 73.7945 121.568C77.072 121.568 78.2222 120.524 78.2222 117.108C78.2153 111.5 78.2153 105.892 78.2222 100.281C78.2222 97.0591 76.7117 96.2233 73.597 96.2268C64.1665 96.2337 54.7222 96.2337 45.2709 96.2268C45.3644 96.199 45.4614 96.1713 45.5584 96.147C44.4221 94.4199 44.5052 92.8003 45.801 91.2813C55.3908 91.2778 65.0084 91.2743 74.6502 91.2813C77.4773 91.2813 78.2153 89.5854 78.2153 86.9496C78.2118 81.3348 78.2083 75.72 78.2153 70.1086C78.2153 67.2613 77.1759 66.0891 74.2206 66.0579C64.662 65.9573 55.0929 65.9365 45.5065 65.9954C45.5619 65.9781 45.6173 65.9608 45.6762 65.9434C44.2315 64.1192 44.2904 62.4996 45.8564 61.0777C55.3215 61.0742 64.7901 61.0708 74.2691 61.0777C77.266 61.0777 78.2222 59.6176 78.2187 56.6732C78.2118 51.0965 78.2118 45.5164 78.2187 39.9362C78.2257 36.4473 76.7151 35.7364 73.3753 35.7399C63.9517 35.7503 54.6841 35.7468 45.5688 35.726C42.9912 33.6763 42.2221 31.2417 43.258 28.4153C43.3307 28.2141 43.258 28.1135 43.0466 28.1135C41.1204 28.1135 39.1317 28.0997 37.0876 28.065C31.8423 27.9783 31.773 20.8895 36.9144 20.7542C39.0139 20.6988 41.0996 20.6953 43.1679 20.7404C43.2268 20.7404 43.2718 20.6953 43.2718 20.6363C43.2718 20.6121 43.2649 20.5912 43.2476 20.5704C41.2416 18.2121 41.2208 15.7429 43.1887 13.1661C50.4642 13.1695 57.7571 13.1695 65.0708 13.1661C66.5259 13.1661 67.5341 12.5418 68.1023 11.2968C68.6808 10.0344 68.1404 8.78241 69.6578 7.81828C70.9986 6.96513 75.991 7.40558 77.751 7.40211C81.7318 7.39518 83.2458 8.85871 83.2458 12.8158V119.917C83.2458 124.523 81.8011 125.868 77.3145 125.872C65.7533 125.882 54.1782 125.882 42.5893 125.872L42.5928 125.875ZM43.4936 20.8826L43.4797 27.8846C43.4797 27.9505 43.5351 28.006 43.601 28.006L68.4037 28.0511C70.4547 28.0546 72.1177 26.4419 72.1211 24.4478V24.42C72.1246 22.4259 70.4651 20.8097 68.4141 20.8063L43.6114 20.7612C43.5455 20.7612 43.4901 20.8167 43.4901 20.8826H43.4936Z" fill="#FAF9F6"/>
<path d="M43.4909 20.8826C43.4909 20.8167 43.5463 20.7612 43.6121 20.7612L68.4148 20.8063C70.4658 20.8098 72.1253 22.4294 72.1219 24.4201V24.4443C72.1184 26.4385 70.452 28.0512 68.4044 28.0477L43.6017 28.0026C43.5359 28.0026 43.4805 27.9471 43.4805 27.8812L43.4943 20.8791L43.4909 20.8826Z" fill="#D0E8F4"/>
<path d="M12.1141 30.6313L14.9481 33.0312L15.0243 46.9451L14.9481 44.6076C14.9447 44.5001 14.9031 44.41 14.8234 44.3337C12.322 41.9233 9.78941 39.5442 7.22565 37.1998C4.97716 35.1398 4.85936 33.3572 4.46094 30.4821C7.02124 29.2232 9.57114 29.2718 12.1107 30.6278L12.1141 30.6313Z" fill="#F9BA8F"/>
<path d="M4.46381 30.4856C4.86223 33.3606 4.98003 35.1432 7.22852 37.2033C9.78882 39.5477 12.3214 41.9268 14.8263 44.3371C14.9025 44.41 14.9441 44.5001 14.951 44.6111L15.0272 46.9486L15.0168 53.5206C14.8575 53.7565 14.5838 53.6663 14.1957 53.2432L2.34697 42.232C-0.698364 38.3894 0.10541 32.9306 4.46727 30.4856H4.46381Z" fill="#FCAD6D"/>
<path d="M114.418 120.722C112.051 134.376 103.66 145.356 90.8241 150.783C83.4031 153.922 75.3619 154.522 66.697 152.583C64.8955 151.491 63.281 150.644 61.8536 150.051C53.0398 146.403 45.7365 140.695 39.9473 132.926L41.9324 132.864C53.3239 132.853 64.7604 132.857 76.2453 132.874C78.8611 132.877 80.7596 132.721 81.9376 132.406C86.4311 131.202 89.809 127.367 90.1832 122.511C90.2663 121.447 90.3079 120.566 90.3079 119.869C90.301 92.7344 90.3079 65.6174 90.3218 38.5177C90.7098 37.1548 91.3473 36.0242 92.2411 35.1225C95.7022 31.6232 101.987 33.2012 103.172 38.1224C103.307 38.6842 103.376 39.6414 103.373 40.994C103.366 47.2816 103.369 51.2942 103.38 53.0317C103.428 60.9736 106.169 67.8404 109.571 74.9396C110.891 77.6933 111.75 79.6493 112.152 80.8076C115.686 91.0419 114.303 99.5804 113.07 111.23C112.73 114.438 113.181 117.601 114.428 120.715L114.418 120.722Z" fill="#F9BA8F"/>
<path d="M44.7295 35.7538C43.4303 36.6833 42.7304 37.689 42.6369 38.7676C42.5884 39.3468 42.578 40.2311 42.6126 41.4207C41.0466 41.4207 37.7068 41.0531 36.4388 41.8715C35.098 42.7316 35.1638 45.1003 36.6467 45.898C37.932 46.5916 42.0618 46.2136 43.6693 46.217L42.7789 46.2933C42.6681 46.3003 42.6126 46.3592 42.6126 46.4702V50.5175C41.9717 50.5105 40.5062 50.5175 38.2023 50.5452C34.5645 50.5903 34.419 55.4283 38.5106 55.3901C39.8375 55.3763 41.1922 55.3763 42.5676 55.3901C42.5953 57.3565 42.3459 59.427 44.3172 60.6027C44.383 60.6408 44.3899 60.6894 44.3414 60.7483C44.3206 60.7691 44.3137 60.8003 44.3137 60.835C44.3137 60.9183 44.3518 60.9633 44.4384 60.9668C44.5562 60.9737 44.6221 61.005 44.6428 61.0639C40.1355 61.0639 35.6316 61.0639 31.1276 61.0639C27.9818 61.0639 27.0499 59.6489 27.043 56.6976C27.0326 50.8435 27.0326 44.9893 27.043 39.1352C27.043 36.5341 28.9762 35.7261 31.3355 35.7226C35.6801 35.7191 40.1493 35.7226 44.7399 35.7434L44.7295 35.7538Z" fill="#BAD0DB"/>
<path d="M44.7294 35.7536L45.5712 35.7224C54.6865 35.7432 63.9541 35.7467 73.3777 35.7363C76.721 35.7363 78.2281 36.4438 78.2211 39.9327C78.2142 45.5128 78.2142 51.093 78.2211 56.6697C78.2211 59.6175 77.2718 61.0741 74.2715 61.0741C64.7925 61.0741 55.3239 61.0741 45.8588 61.0741H44.6358C44.615 61.0117 44.5492 60.9805 44.4314 60.9736C44.3483 60.9701 44.3067 60.925 44.3067 60.8418C44.3067 60.8036 44.3171 60.7759 44.3344 60.7551C44.3829 60.6961 44.376 60.6476 44.3101 60.6094C42.3388 59.4337 42.5917 57.3598 42.5605 55.3969C50.6641 55.3934 58.8023 55.3899 66.9717 55.3865C70.9664 55.3865 70.8278 50.5242 66.6911 50.5207C58.6603 50.5173 50.6295 50.5173 42.6021 50.5207V46.4735C42.6021 46.366 42.661 46.307 42.7719 46.2966L43.6623 46.2203C45.4569 46.2203 50.9378 46.6573 52.2751 45.818C53.6125 44.9787 53.6298 42.6933 52.3132 41.8471C51.8802 41.5661 51.2011 41.4274 50.2726 41.4239C47.7158 41.417 45.1624 41.417 42.6091 41.4239C42.5779 40.2344 42.5848 39.35 42.6333 38.7709C42.7268 37.6923 43.4267 36.6865 44.7259 35.7571L44.7294 35.7536ZM63.424 43.6574C63.424 42.4401 62.4366 41.4517 61.2206 41.4517H59.0518C57.8357 41.4517 56.8483 42.4401 56.8483 43.6574V43.9765C56.8483 45.1938 57.8357 46.1822 59.0518 46.1822H61.2206C62.4366 46.1822 63.424 45.1938 63.424 43.9765V43.6574Z" fill="#D0E8F4"/>
<path d="M42.6073 41.424C45.1607 41.4206 47.7141 41.424 50.2709 41.424C51.1994 41.424 51.8785 41.5662 52.3115 41.8471C53.6246 42.6933 53.6107 44.9753 52.2734 45.8181C50.9361 46.6608 45.4552 46.2169 43.6606 46.2204C42.053 46.2204 37.9233 46.5949 36.6379 45.9013C35.1551 45.1037 35.0893 42.735 36.4301 41.8749C37.6981 41.0564 41.0379 41.4206 42.6039 41.424H42.6073Z" fill="#083B73"/>
<path d="M61.2199 41.4517H59.0511C57.8342 41.4517 56.8477 42.4392 56.8477 43.6574V43.9764C56.8477 45.1946 57.8342 46.1821 59.0511 46.1821H61.2199C62.4368 46.1821 63.4234 45.1946 63.4234 43.9764V43.6574C63.4234 42.4392 62.4368 41.4517 61.2199 41.4517Z" fill="#BAD5E0"/>
<path d="M42.6047 50.5209C50.6321 50.5174 58.6629 50.5174 66.6937 50.5209C70.8269 50.5209 70.9689 55.3832 66.9743 55.3866C58.8049 55.3866 50.6667 55.3936 42.5631 55.397C41.1877 55.3832 39.8365 55.3832 38.5061 55.397C34.4145 55.4317 34.56 50.5972 38.1978 50.5521C40.4983 50.5244 41.9672 50.514 42.6047 50.5244V50.5209Z" fill="#BAD5E0"/>
<path d="M14.1922 53.2432C14.5802 53.6628 14.8539 53.7565 15.0133 53.5206L15.0202 53.7981C15.0202 53.9091 15.0653 54.0027 15.1484 54.079L21.9909 60.4082C23.9761 62.3053 26.8724 64.3827 27.8737 67.0219C28.234 68.3987 28.2652 69.6993 27.9672 70.9304C24.9011 71.5235 23.0753 70.6946 20.7575 68.5478C17.3761 65.4127 13.9947 62.2845 10.6133 59.1563C8.67319 57.3598 7.94563 55.0882 8.43067 52.3415C10.4644 51.849 12.3837 52.1507 14.1922 53.2501V53.2432Z" fill="#F9BA8F"/>
<path d="M8.43069 52.3347C7.94565 55.0814 8.67321 57.353 10.6134 59.1495C13.9948 62.2777 17.3761 65.4059 20.7575 68.5411C23.0753 70.6878 24.9011 71.5202 27.9673 70.9237L27.0145 73.0808C25.6772 74.7732 23.9761 75.7062 21.9112 75.8796C20.4804 75.9108 19.1535 75.5778 17.9235 74.8808L13.9151 71.2982C11.5592 69.0891 9.21021 66.8972 6.87164 64.7193C5.5274 63.4707 4.6578 62.4477 4.26284 61.6569C2.44049 57.9946 4.46725 53.5867 8.43415 52.3347H8.43069Z" fill="#FCAD6D"/>
<path d="M45.6742 65.9434C45.6187 65.9607 45.5633 65.978 45.5044 65.9954C44.0562 66.311 43.1173 67.1884 42.6808 68.6311C42.5422 69.0924 42.5284 70.0912 42.6392 71.631C41.146 71.6241 38.3259 71.3362 37.0163 71.8252C35.0207 72.5709 34.9375 75.4112 36.8742 76.2609C38.1457 76.8193 41.1772 76.5002 42.608 76.5002L42.6323 80.8041C40.8688 80.8041 36.9989 80.2666 35.9007 81.8723C35.083 83.0757 35.4607 84.7265 36.7841 85.3889C38.0071 85.9993 41.2222 85.6768 42.6739 85.6768C42.317 88.1183 42.5838 89.5714 44.6313 91.2777H29.6229C29.0443 91.2777 28.4103 90.8685 27.714 90.05L27.9669 89.1483C28.4415 87.227 28.1262 85.3334 27.0176 83.4711V73.0772L27.9669 70.9201C28.2648 69.6889 28.2336 68.3884 27.8733 67.0115C28.7013 66.3006 29.3943 65.9434 29.9451 65.9434C35.0623 65.9434 40.3041 65.9434 45.6742 65.9434Z" fill="#BAD0DB"/>
<path d="M45.8027 91.2883H44.6317C42.5842 89.5785 42.3174 88.1288 42.6743 85.6838C50.7917 85.6838 58.8987 85.6804 66.9988 85.6769C69.7739 85.6769 71.1147 82.3787 68.5579 81.1198C68.1352 80.9117 67.4562 80.8077 66.5242 80.8077H42.6327L42.6084 76.5038C45.2796 76.5038 47.8988 76.5038 50.466 76.4969C53.4178 76.4899 54.5057 72.9178 51.8172 71.8566C51.4396 71.7074 50.8021 71.6311 49.9048 71.6311H42.6396C42.5287 70.0913 42.5426 69.0925 42.6812 68.6313C43.1177 67.1885 44.0566 66.3111 45.5048 65.9955C55.0912 65.9365 64.6603 65.9539 74.219 66.0579C77.1742 66.0891 78.2136 67.2614 78.2136 70.1087C78.2136 75.72 78.2136 81.3349 78.2136 86.9497C78.2136 89.5889 77.4722 91.2813 74.6486 91.2813C65.0033 91.2813 55.3891 91.2813 45.7993 91.2813L45.8027 91.2883ZM63.42 73.8854C63.413 72.6577 62.4118 71.6658 61.1853 71.6728L59.0754 71.6832C57.849 71.6901 56.8581 72.6924 56.865 73.9201V74.2565C56.872 75.4842 57.8732 76.4761 59.0997 76.4691L61.2096 76.4587C62.436 76.4518 63.4269 75.4495 63.42 74.2218V73.8854Z" fill="#D0E8F4"/>
<path d="M13.9149 71.2981L17.9234 74.8806L21.9596 78.6539L27.0178 83.4745C28.1265 85.3369 28.4452 87.2305 27.9671 89.1518C25.4345 89.6581 23.193 89.02 21.2459 87.2374C17.7744 84.0572 14.3306 80.8457 10.9146 77.61C9.91682 76.6667 9.25509 75.8343 8.93288 75.1199C8.31966 73.7708 8.12911 72.2622 8.36123 70.594C10.1455 70.0946 11.9955 70.3305 13.9149 71.2946V71.2981Z" fill="#F9BA8F"/>
<path d="M8.36239 70.5977C8.13026 72.2658 8.32081 73.7744 8.93404 75.1235C9.2597 75.8414 9.91797 76.6703 10.9158 77.6136C14.3353 80.8493 17.779 84.0608 21.247 87.241C23.1941 89.0236 25.4357 89.6617 27.9683 89.1554L27.7153 90.0571C26.572 92.4535 24.6561 93.8096 21.9746 94.1321C20.5888 94.1911 19.196 93.8442 17.7963 93.0847L13.9299 89.5438C11.3073 87.0849 8.68112 84.6503 6.05846 82.24C2.04998 78.55 3.1136 72.4253 8.36585 70.5977H8.36239Z" fill="#FCAD6D"/>
<path d="M42.6444 71.6311H49.9096C50.8069 71.6311 51.4409 71.7074 51.822 71.8566C54.5105 72.9178 53.4261 76.4934 50.4708 76.4969C47.9036 76.5038 45.2844 76.5038 42.6132 76.5038C41.1824 76.5038 38.1509 76.8229 36.8794 76.2645C34.9427 75.4148 35.0259 72.5745 37.0214 71.8288C38.331 71.3398 41.1512 71.6277 42.6444 71.6346V71.6311Z" fill="#083B73"/>
<path d="M61.1841 71.6729L59.0777 71.6839C57.8493 71.6903 56.8587 72.6924 56.8652 73.922L56.8669 74.2584C56.8734 75.4881 57.8744 76.4797 59.1028 76.4733L61.2092 76.4622C62.4376 76.4558 63.4282 75.4537 63.4218 74.2241L63.42 73.8877C63.4136 72.658 62.4125 71.6664 61.1841 71.6729Z" fill="#BAD5E0"/>
<path d="M27.0134 73.0808V83.4747L21.9587 78.654L21.9102 75.8796C23.975 75.7061 25.6761 74.7732 27.0134 73.0808Z" fill="#EFEFEF"/>
<path d="M17.9238 74.8806C19.1537 75.5812 20.4807 75.9141 21.9115 75.8794L21.96 78.6539L17.9238 74.8806Z" fill="#142766"/>
<path d="M42.6339 80.8076H66.5219C67.4573 80.8076 68.1364 80.9117 68.5556 81.1198C71.1124 82.3787 69.7717 85.6768 66.9966 85.6768C58.8965 85.6768 50.7894 85.6803 42.672 85.6838C41.2203 85.6838 38.0052 86.0063 36.7822 85.3959C35.4588 84.7335 35.0812 83.0792 35.8988 81.8793C36.997 80.2735 40.8669 80.8076 42.6304 80.8111L42.6339 80.8076Z" fill="#BAD5E0"/>
<path d="M13.9302 89.5438L17.7966 93.0847L21.9125 96.8857L27.0088 101.727C28.1244 103.596 28.4397 105.493 27.9547 107.415C25.138 107.987 23.184 107.241 21.036 105.278C17.5818 102.119 14.1519 98.9353 10.7463 95.7239C8.79572 93.8858 7.99194 91.5934 8.33147 88.8432C10.1157 88.3438 11.9796 88.5796 13.9267 89.5403L13.9302 89.5438Z" fill="#F9BA8F"/>
<path d="M8.33405 88.8467C7.99452 91.5969 8.7983 93.8893 10.7488 95.7274C14.1545 98.9353 17.5844 102.123 21.0385 105.282C23.1866 107.248 25.1406 107.991 27.9572 107.418L27.0045 109.61C25.7018 111.233 24.0319 112.159 21.9982 112.385C18.9425 112.499 17.2171 110.963 15.0172 108.788C12.4361 106.381 9.79262 103.926 7.09028 101.422C5.60745 100.052 4.66509 98.9631 4.26321 98.155C2.43739 94.4719 4.41911 90.2755 8.33405 88.8502V88.8467Z" fill="#FCAD6D"/>
<path d="M27.7133 90.0571C28.4062 90.8756 29.0437 91.2848 29.6222 91.2848H45.8017C44.5025 92.8073 44.4228 94.4269 45.5591 96.154C40.8093 96.154 36.2464 96.1575 31.8707 96.161C27.3668 96.161 27.1555 97.7424 27.0065 101.727L21.9102 96.8858L21.976 94.1321C24.6575 93.8131 26.5734 92.4536 27.7167 90.0571H27.7133Z" fill="#EFEFEF"/>
<path d="M17.7964 93.0847C19.1996 93.8442 20.5923 94.191 21.9747 94.1321L21.9089 96.8857L17.793 93.0847H17.7964Z" fill="#142766"/>
<path d="M45.5605 96.1538C45.4635 96.1781 45.3664 96.2058 45.2729 96.2336C45.0338 96.4209 44.774 96.5804 44.4865 96.7087C42.4043 97.6347 42.3731 100.062 42.7126 101.925C41.2506 101.914 37.8588 101.581 36.6115 102.261C35.2119 103.028 35.0941 105.337 36.3621 106.229C37.6093 107.106 41.0462 106.811 42.581 106.759L42.5602 111.08C40.9977 111.105 38.0632 110.796 36.7778 111.344C35.2153 112.01 35.0421 114.538 36.4279 115.45C37.6752 116.272 41.0011 115.988 42.5394 115.964C42.8304 118.343 42.2033 120.139 44.8156 121.478L44.6354 121.603C40.2701 121.634 35.9013 121.627 31.5256 121.585C28.896 121.561 27.0113 120.836 27.0321 117.916C27.0494 115.176 27.0425 112.409 27.0078 109.61L27.9606 107.418C28.4456 105.497 28.1303 103.6 27.0147 101.73C27.1637 97.7457 27.3751 96.1677 31.879 96.1642C36.2547 96.1642 40.814 96.1607 45.5674 96.1573L45.5605 96.1538Z" fill="#BAD0DB"/>
<path d="M45.2682 96.2336C54.7195 96.2406 64.1604 96.2406 73.5944 96.2336C76.7055 96.2336 78.223 97.066 78.2196 100.288C78.2126 105.896 78.2126 111.504 78.2196 117.115C78.2196 120.531 77.0693 121.575 73.7919 121.575C64.3891 121.575 54.9828 121.575 45.5731 121.575C45.3618 121.575 45.0881 121.457 44.8075 121.481C42.1952 120.143 42.8257 118.343 42.5312 115.967C50.3854 115.977 58.2464 115.981 66.1144 115.977C67.1919 115.977 67.9298 115.898 68.3317 115.742C70.1229 115.048 70.4451 112.489 68.699 111.472C68.3283 111.257 67.715 111.146 66.8558 111.136C58.728 111.025 50.6279 111.008 42.5555 111.087L42.5763 106.766C45.1366 106.711 47.683 106.7 50.2156 106.732C51.1337 106.742 51.8162 106.61 52.2701 106.336C53.6698 105.487 53.6421 103.024 52.1038 102.23C51.7227 102.036 51.1476 101.935 50.375 101.935C47.8563 101.928 45.3029 101.928 42.7114 101.935C42.3753 100.069 42.4031 97.6452 44.4853 96.7192C44.7693 96.5909 45.0327 96.4348 45.2717 96.244L45.2682 96.2336ZM63.4225 104.141C63.4155 102.924 62.4247 101.942 61.2086 101.946L59.0398 101.956C57.8238 101.963 56.8433 102.955 56.8468 104.172V104.498C56.8537 105.715 57.848 106.697 59.0641 106.693L61.2329 106.683C62.4489 106.676 63.4294 105.684 63.4259 104.467V104.141H63.4225Z" fill="#D0E8F4"/>
<path d="M42.709 101.925C45.3005 101.918 47.8538 101.918 50.3726 101.925C51.1452 101.925 51.7203 102.025 52.1014 102.22C53.6396 103.014 53.6639 105.473 52.2677 106.326C51.8138 106.6 51.1313 106.731 50.2132 106.721C47.6806 106.69 45.1342 106.704 42.5739 106.756C41.0425 106.808 37.6022 107.103 36.355 106.225C35.087 105.334 35.2048 103.024 36.6045 102.258C37.8517 101.574 41.24 101.911 42.7055 101.921L42.709 101.925Z" fill="#083B73"/>
<path d="M61.212 101.952L59.0433 101.964C57.8263 101.97 56.845 102.963 56.8514 104.181L56.8531 104.507C56.8595 105.725 57.8511 106.707 59.068 106.701L61.2368 106.69C62.4537 106.683 63.4351 105.69 63.4287 104.472L63.427 104.146C63.4206 102.928 62.429 101.946 61.212 101.952Z" fill="#BAD5E0"/>
<path d="M15.0137 108.785C17.2137 110.959 18.9355 112.496 21.9947 112.381C22.0017 114.885 22.0017 117.375 21.9947 119.851C21.9878 123.319 22.8921 125.948 26.8694 125.952C32.0107 125.959 37.1868 125.962 42.4044 125.962C40.7033 128.355 39.7159 130.197 41.9332 132.864L39.948 132.926C36.092 132.853 32.1493 132.832 28.1235 132.86C25.875 132.874 24.2398 132.739 23.2177 132.454C19.5141 131.414 16.4965 128.369 15.4606 124.644C15.1765 123.632 15.0345 121.988 15.0275 119.713C15.0206 116.127 15.0171 112.482 15.0171 108.781L15.0137 108.785Z" fill="#142766"/>
<path d="M27.0024 109.607C27.0336 112.405 27.044 115.173 27.0267 117.913C27.0059 120.833 28.894 121.558 31.5202 121.582C35.8959 121.624 40.2647 121.627 44.63 121.599C44.727 121.634 44.7825 121.693 44.7998 121.78C44.8206 121.891 44.7755 121.967 44.6716 122.009C42.9948 122.744 42.3018 124.034 42.5929 125.875C42.5028 125.869 42.4404 125.9 42.4058 125.962C37.1916 125.962 32.0121 125.962 26.8708 125.952C22.8935 125.952 21.9892 123.32 21.9961 119.851C22.0031 117.375 22.0031 114.885 21.9961 112.381C24.0333 112.156 25.6997 111.23 27.0024 109.607Z" fill="#EFEFEF"/>
<path d="M42.5583 111.081C50.6307 111.004 58.7308 111.018 66.8586 111.129C67.7178 111.14 68.331 111.254 68.7017 111.466C70.4479 112.478 70.1257 115.038 68.3345 115.735C67.9326 115.891 67.1947 115.971 66.1172 115.971C58.2457 115.974 50.3847 115.971 42.534 115.96C40.9958 115.984 37.6698 116.269 36.4226 115.447C35.0367 114.535 35.2134 112.007 36.7725 111.341C38.0578 110.793 40.9958 111.105 42.5548 111.077L42.5583 111.081Z" fill="#BAD5E0"/>
<path d="M114.42 120.722L123.393 144.201C123.393 144.201 123.362 144.229 123.341 144.277C123.327 144.305 123.313 144.329 123.293 144.35C110.398 156.679 95.0531 163.952 77.2557 166.171C76.2544 160.279 71.7297 155.829 66.6992 152.587C75.364 154.525 83.4053 153.929 90.8263 150.787C103.662 145.359 112.054 134.376 114.42 120.725V120.722Z" fill="#FD995B"/>
</g>
<defs>
<clipPath id="clip0_716_479">
<rect width="123.172" height="166" fill="white" transform="translate(0.521484 0.223145)"/>
</clipPath>
</defs>
</svg>
