<svg width="13" height="15" viewBox="0 0 13 15" fill="none" xmlns="http://www.w3.org/2000/svg">
<path d="M6.67729 6.42259C7.37291 6.42259 8.05292 6.23425 8.63131 5.88139C9.20969 5.52853 9.6605 5.027 9.9267 4.44021C10.1929 3.85342 10.2626 3.20774 10.1268 2.58481C9.99113 1.96187 9.65616 1.38968 9.16428 0.940568C8.6724 0.49146 8.04571 0.185614 7.36345 0.0617056C6.68119 -0.062203 5.97401 0.00139139 5.33134 0.244447C4.68867 0.487502 4.13937 0.899102 3.7529 1.4272C3.36643 1.95529 3.16016 2.57616 3.16016 3.2113C3.16016 4.06299 3.53071 4.87979 4.1903 5.48203C4.84989 6.08426 5.74449 6.42259 6.67729 6.42259Z" fill="#053779"/>
<path d="M11.9541 14.4508C12.1873 14.4508 12.411 14.3662 12.5759 14.2157C12.7408 14.0651 12.8334 13.8609 12.8334 13.648C12.8334 12.1575 12.1849 10.7281 11.0307 9.67419C9.87637 8.62028 8.31083 8.0282 6.67842 8.0282C5.04602 8.0282 3.48047 8.62028 2.32619 9.67419C1.17191 10.7281 0.523438 12.1575 0.523438 13.648C0.523438 13.8609 0.616076 14.0651 0.780974 14.2157C0.945872 14.3662 1.16952 14.4508 1.40272 14.4508H11.9541Z" fill="#053779"/>
</svg>
